<svg width="24" height="24" viewBox="0 0 24 24" fill="none" xmlns="http://www.w3.org/2000/svg">
<path d="M1.29297 11.2929L5.29297 7.29289C5.38522 7.19738 5.49556 7.1212 5.61757 7.06879C5.73957 7.01638 5.87079 6.98879 6.00357 6.98764C6.13635 6.98648 6.26803 7.01179 6.39092 7.06207C6.51382 7.11235 6.62547 7.1866 6.71936 7.28049C6.81326 7.37439 6.88751 7.48604 6.93779 7.60893C6.98807 7.73183 7.01337 7.86351 7.01222 7.99629C7.01107 8.12907 6.98348 8.26029 6.93107 8.38229C6.87866 8.5043 6.80248 8.61464 6.70697 8.70689L3.41397 11.9999L6.70697 15.2929C6.80248 15.3851 6.87866 15.4955 6.93107 15.6175C6.98348 15.7395 7.01107 15.8707 7.01222 16.0035C7.01337 16.1363 6.98807 16.2679 6.93779 16.3908C6.88751 16.5137 6.81326 16.6254 6.71936 16.7193C6.62547 16.8132 6.51382 16.8874 6.39092 16.9377C6.26803 16.988 6.13635 17.0133 6.00357 17.0121C5.87079 17.011 5.73957 16.9834 5.61757 16.931C5.49556 16.8786 5.38522 16.8024 5.29297 16.7069L1.29297 12.7069C1.1055 12.5194 1.00018 12.2651 1.00018 11.9999C1.00018 11.7347 1.1055 11.4804 1.29297 11.2929ZM18.707 7.29289C18.6147 7.19738 18.5044 7.1212 18.3824 7.06879C18.2604 7.01638 18.1292 6.98879 17.9964 6.98764C17.8636 6.98648 17.7319 7.01179 17.609 7.06207C17.4861 7.11235 17.3745 7.1866 17.2806 7.28049C17.1867 7.37439 17.1124 7.48604 17.0621 7.60893C17.0119 7.73183 16.9866 7.86351 16.9877 7.99629C16.9889 8.12907 17.0165 8.26029 17.0689 8.38229C17.1213 8.5043 17.1975 8.61464 17.293 8.70689L20.586 11.9999L17.293 15.2929C17.1975 15.3851 17.1213 15.4955 17.0689 15.6175C17.0165 15.7395 16.9889 15.8707 16.9877 16.0035C16.9866 16.1363 17.0119 16.2679 17.0621 16.3908C17.1124 16.5137 17.1867 16.6254 17.2806 16.7193C17.3745 16.8132 17.4861 16.8874 17.609 16.9377C17.7319 16.988 17.8636 17.0133 17.9964 17.0121C18.1292 17.011 18.2604 16.9834 18.3824 16.931C18.5044 16.8786 18.6147 16.8024 18.707 16.7069L22.707 12.7069C22.8944 12.5194 22.9998 12.2651 22.9998 11.9999C22.9998 11.7347 22.8944 11.4804 22.707 11.2929L18.707 7.29289ZM13.039 4.72589L9.03897 18.7259C8.96615 18.9808 8.99751 19.2541 9.12614 19.4859C9.25477 19.7176 9.47016 19.8889 9.72497 19.9619C9.81456 19.9866 9.90703 19.9994 9.99997 19.9999C10.2173 19.9997 10.4286 19.9288 10.602 19.7978C10.7754 19.6668 10.9014 19.4829 10.961 19.2739L14.961 5.27389C15.0027 5.14604 15.0181 5.01109 15.0065 4.87713C14.9948 4.74316 14.9562 4.61292 14.8931 4.4942C14.8299 4.37548 14.7435 4.27072 14.6389 4.18618C14.5343 4.10164 14.4138 4.03906 14.2844 4.00219C14.1551 3.96532 14.0197 3.95491 13.8862 3.97158C13.7528 3.98826 13.6241 4.03168 13.5078 4.09924C13.3916 4.1668 13.2901 4.25712 13.2095 4.36479C13.129 4.47246 13.071 4.59528 13.039 4.72589Z" fill="black"/>
</svg>
