<svg width="24" height="24" viewBox="0 0 24 24" fill="none" xmlns="http://www.w3.org/2000/svg">
<path d="M12 21.9999C14.579 21.9999 16 20.6499 16 18.1999C16 14.9569 12.763 12.3289 12.625 12.2189C12.4476 12.0769 12.2272 11.9995 12 11.9995C11.7728 11.9995 11.5524 12.0769 11.375 12.2189C11.237 12.3289 8 14.9569 8 18.1999C8 20.6499 9.421 21.9999 12 21.9999ZM12 14.3609C13.1097 15.3561 13.8203 16.7202 14 18.1999C14 19.3119 13.665 19.9999 12 19.9999C10.335 19.9999 10 19.3119 10 18.1999C10.1797 16.7202 10.8903 15.3561 12 14.3609ZM6.625 2.21889C6.44764 2.07688 6.22721 1.99951 6 1.99951C5.77279 1.99951 5.55236 2.07688 5.375 2.21889C5.237 2.32889 2 4.95689 2 8.19989C2 10.6499 3.421 11.9999 6 11.9999C8.579 11.9999 10 10.6499 10 8.19989C10 4.95689 6.763 2.32889 6.625 2.21889ZM6 9.99989C4.335 9.99989 4 9.31189 4 8.19989C4.17967 6.72021 4.89035 5.35607 6 4.36089C7.10965 5.35607 7.82033 6.72021 8 8.19989C8 9.31189 7.665 9.99989 6 9.99989ZM18.625 2.21889C18.4476 2.07688 18.2272 1.99951 18 1.99951C17.7728 1.99951 17.5524 2.07688 17.375 2.21889C17.237 2.32889 14 4.95689 14 8.19989C14 10.6499 15.421 11.9999 18 11.9999C20.579 11.9999 22 10.6499 22 8.19989C22 4.95689 18.763 2.32889 18.625 2.21889ZM18 9.99989C16.335 9.99989 16 9.31189 16 8.19989C16.1797 6.72021 16.8903 5.35607 18 4.36089C19.1097 5.35607 19.8203 6.72021 20 8.19989C20 9.31189 19.665 9.99989 18 9.99989Z" fill="black"/>
</svg>
