<svg width="24" height="24" viewBox="0 0 24 24" fill="none" xmlns="http://www.w3.org/2000/svg">
<path d="M21.707 5.56503L18.435 2.29303C18.2474 2.10556 17.9931 2.00024 17.728 2.00024C17.4628 2.00024 17.2085 2.10556 17.021 2.29303L3.92997 15.384C3.8199 15.4933 3.73701 15.6269 3.68797 15.774L2.05197 20.684C2.00193 20.8343 1.98829 20.9943 2.01217 21.1508C2.03605 21.3074 2.09677 21.456 2.18934 21.5845C2.2819 21.713 2.40367 21.8177 2.5446 21.8899C2.68553 21.9622 2.84161 21.9999 2.99997 22C3.10744 22 3.21417 21.9825 3.31597 21.948L8.22597 20.312C8.37312 20.263 8.5067 20.1801 8.61597 20.07L21.707 6.97903C21.8944 6.7915 21.9998 6.53719 21.9998 6.27203C21.9998 6.00687 21.8944 5.75256 21.707 5.56503ZM7.36897 18.489L4.58097 19.419L5.51097 16.631L14.454 7.68703L16.313 9.54603L7.36897 18.489ZM17.728 8.13203L15.868 6.27203L17.728 4.41403L19.586 6.27203L17.728 8.13203Z" fill="black"/>
</svg>
