<svg width="24" height="24" viewBox="0 0 24 24" fill="none" xmlns="http://www.w3.org/2000/svg">
<path d="M7 17H17C18.3261 17 19.5979 16.4732 20.5355 15.5355C21.4732 14.5979 22 13.3261 22 12C22 10.6739 21.4732 9.40215 20.5355 8.46447C19.5979 7.52678 18.3261 7 17 7H7C5.67392 7 4.40215 7.52678 3.46447 8.46447C2.52678 9.40215 2 10.6739 2 12C2 13.3261 2.52678 14.5979 3.46447 15.5355C4.40215 16.4732 5.67392 17 7 17ZM7 10C7.39556 10 7.78224 10.1173 8.11114 10.3371C8.44004 10.5568 8.69638 10.8692 8.84776 11.2346C8.99913 11.6001 9.03874 12.0022 8.96157 12.3902C8.8844 12.7781 8.69392 13.1345 8.41421 13.4142C8.13451 13.6939 7.77814 13.8844 7.39018 13.9616C7.00222 14.0387 6.60009 13.9991 6.23463 13.8478C5.86918 13.6964 5.55682 13.44 5.33706 13.1111C5.1173 12.7822 5 12.3956 5 12C5 11.4696 5.21071 10.9609 5.58579 10.5858C5.96086 10.2107 6.46957 10 7 10Z" fill="black"/>
</svg>
