<svg width="24" height="24" viewBox="0 0 24 24" fill="none" xmlns="http://www.w3.org/2000/svg">
<path d="M2 11.308C2.00006 11.5732 2.10545 11.8275 2.293 12.015L11.985 21.707C12.1725 21.8945 12.4268 21.9998 12.692 21.9998C12.9572 21.9998 13.2115 21.8945 13.399 21.707L21.707 13.4C21.8945 13.2125 21.9998 12.9582 21.9998 12.693C21.9998 12.4278 21.8945 12.1735 21.707 11.986L12.015 2.293C11.8275 2.10545 11.5732 2.00006 11.308 2H3C2.73478 2 2.48043 2.10536 2.29289 2.29289C2.10536 2.48043 2 2.73478 2 3V11.308ZM4 4H10.894L19.586 12.692L12.692 19.586L4 10.894V4ZM9.923 7.154C10.1968 7.42783 10.3833 7.77671 10.4589 8.15653C10.5344 8.53634 10.4957 8.93003 10.3475 9.28781C10.1993 9.64559 9.9483 9.9514 9.62631 10.1665C9.30432 10.3817 8.92576 10.4965 8.5385 10.4965C8.15124 10.4965 7.77268 10.3817 7.45069 10.1665C7.1287 9.9514 6.87774 9.64559 6.72954 9.28781C6.58134 8.93003 6.54257 8.53634 6.61813 8.15653C6.69368 7.77671 6.88016 7.42783 7.154 7.154C7.33575 6.97207 7.55157 6.82774 7.78914 6.72927C8.0267 6.6308 8.28134 6.58012 8.5385 6.58012C8.79566 6.58012 9.0503 6.6308 9.28786 6.72927C9.52543 6.82774 9.74125 6.97207 9.923 7.154Z" fill="black"/>
</svg>
