<svg width="24" height="24" viewBox="0 0 24 24" fill="none" xmlns="http://www.w3.org/2000/svg">
<path d="M15 16C15 16.5933 14.8241 17.1734 14.4944 17.6667C14.1648 18.1601 13.6962 18.5446 13.1481 18.7716C12.5999 18.9987 11.9967 19.0581 11.4147 18.9424C10.8328 18.8266 10.2982 18.5409 9.87868 18.1213C9.45912 17.7018 9.1734 17.1672 9.05764 16.5853C8.94189 16.0033 9.0013 15.4001 9.22836 14.8519C9.45542 14.3038 9.83994 13.8352 10.3333 13.5056C10.8266 13.1759 11.4067 13 12 13C12.7956 13 13.5587 13.3161 14.1213 13.8787C14.6839 14.4413 15 15.2044 15 16ZM16 5V10.262C17.223 11.1136 18.1423 12.3332 18.6241 13.7435C19.1059 15.1537 19.125 16.6809 18.6788 18.1028C18.2325 19.5246 17.3441 20.767 16.1429 21.649C14.9416 22.531 13.4903 23.0066 12 23.0066C10.5097 23.0066 9.05837 22.531 7.85714 21.649C6.6559 20.767 5.7675 19.5246 5.32123 18.1028C4.87496 16.6809 4.89412 15.1537 5.37592 13.7435C5.85772 12.3332 6.77702 11.1136 8 10.262V5C8 3.93913 8.42143 2.92172 9.17157 2.17157C9.92172 1.42143 10.9391 1 12 1C13.0609 1 14.0783 1.42143 14.8284 2.17157C15.5786 2.92172 16 3.93913 16 5ZM14.5 11.675C14.3481 11.5873 14.222 11.4612 14.1342 11.3094C14.0465 11.1576 14.0002 10.9854 14 10.81V5C14 4.46957 13.7893 3.96086 13.4142 3.58579C13.0391 3.21071 12.5304 3 12 3C11.4696 3 10.9609 3.21071 10.5858 3.58579C10.2107 3.96086 10 4.46957 10 5V10.81C9.99982 10.9854 9.95353 11.1576 9.86577 11.3094C9.77801 11.4612 9.65187 11.5873 9.5 11.675C8.54679 12.2253 7.80181 13.0748 7.3806 14.0917C6.95939 15.1086 6.8855 16.2361 7.17037 17.2992C7.45525 18.3624 8.08297 19.3018 8.95619 19.9719C9.82941 20.6419 10.8993 21.0051 12 21.0051C13.1007 21.0051 14.1706 20.6419 15.0438 19.9719C15.917 19.3018 16.5448 18.3624 16.8296 17.2992C17.1145 16.2361 17.0406 15.1086 16.6194 14.0917C16.1982 13.0748 15.4532 12.2253 14.5 11.675Z" fill="black"/>
</svg>
