<svg width="24" height="24" viewBox="0 0 24 24" fill="none" xmlns="http://www.w3.org/2000/svg">
<path d="M15.111 15C15.111 15.2652 15.2164 15.5196 15.4039 15.7071C15.5914 15.8946 15.8458 16 16.111 16H20C20.2652 16 20.5196 15.8946 20.7071 15.7071C20.8946 15.5196 21 15.2652 21 15C21 14.7348 20.8946 14.4804 20.7071 14.2929C20.5196 14.1054 20.2652 14 20 14H18.676L13.705 1.627C13.6306 1.44181 13.5024 1.28314 13.337 1.1714C13.1716 1.05966 12.9766 0.999966 12.777 1H11.223C11.0234 0.999966 10.8284 1.05966 10.663 1.1714C10.4976 1.28314 10.3694 1.44181 10.295 1.627L5.324 14H4C3.73478 14 3.48043 14.1054 3.29289 14.2929C3.10536 14.4804 3 14.7348 3 15C3 15.2652 3.10536 15.5196 3.29289 15.7071C3.48043 15.8946 3.73478 16 4 16H7.889C8.15422 16 8.40857 15.8946 8.59611 15.7071C8.78364 15.5196 8.889 15.2652 8.889 15C8.889 14.7348 8.78364 14.4804 8.59611 14.2929C8.40857 14.1054 8.15422 14 7.889 14H7.479L9.086 10H14.914L16.521 14H16.111C15.8458 14 15.5914 14.1054 15.4039 14.2929C15.2164 14.4804 15.111 14.7348 15.111 15ZM9.89 8L11.9 3H12.1L14.11 8H9.89ZM22 18H2C1.73478 18 1.48043 18.1054 1.29289 18.2929C1.10536 18.4804 1 18.7348 1 19V22C1 22.2652 1.10536 22.5196 1.29289 22.7071C1.48043 22.8946 1.73478 23 2 23H22C22.2652 23 22.5196 22.8946 22.7071 22.7071C22.8946 22.5196 23 22.2652 23 22V19C23 18.7348 22.8946 18.4804 22.7071 18.2929C22.5196 18.1054 22.2652 18 22 18ZM21 21H3V20H21V21Z" fill="black"/>
</svg>
