<svg width="24" height="24" viewBox="0 0 24 24" fill="none" xmlns="http://www.w3.org/2000/svg">
<path d="M17 6H7C5.4087 6 3.88258 6.63214 2.75736 7.75736C1.63214 8.88258 1 10.4087 1 12C1 13.5913 1.63214 15.1174 2.75736 16.2426C3.88258 17.3679 5.4087 18 7 18H17C18.5913 18 20.1174 17.3679 21.2426 16.2426C22.3679 15.1174 23 13.5913 23 12C23 10.4087 22.3679 8.88258 21.2426 7.75736C20.1174 6.63214 18.5913 6 17 6ZM17 16H7C5.93913 16 4.92172 15.5786 4.17157 14.8284C3.42143 14.0783 3 13.0609 3 12C3 10.9391 3.42143 9.92172 4.17157 9.17157C4.92172 8.42143 5.93913 8 7 8H17C18.0609 8 19.0783 8.42143 19.8284 9.17157C20.5786 9.92172 21 10.9391 21 12C21 13.0609 20.5786 14.0783 19.8284 14.8284C19.0783 15.5786 18.0609 16 17 16ZM9 12C9 12.3956 8.8827 12.7822 8.66294 13.1111C8.44318 13.44 8.13082 13.6964 7.76537 13.8478C7.39991 13.9991 6.99778 14.0387 6.60982 13.9616C6.22186 13.8844 5.86549 13.6939 5.58579 13.4142C5.30608 13.1345 5.1156 12.7781 5.03843 12.3902C4.96126 12.0022 5.00087 11.6001 5.15224 11.2346C5.30362 10.8692 5.55996 10.5568 5.88886 10.3371C6.21776 10.1173 6.60444 10 7 10C7.53043 10 8.03914 10.2107 8.41421 10.5858C8.78929 10.9609 9 11.4696 9 12Z" fill="black"/>
</svg>
