<svg width="32" height="32" viewBox="0 0 32 32" fill="none" xmlns="http://www.w3.org/2000/svg">
<path d="M25.9999 17.85C25.8699 17.85 25.7399 17.82 25.6199 17.74L23.1199 16.24C21.8199 15.46 20.1999 15.46 18.8899 16.24C17.1099 17.31 14.8999 17.31 13.1199 16.24C11.8199 15.46 10.1999 15.46 8.88991 16.24L6.38991 17.74C6.02991 17.95 5.56988 17.84 5.35988 17.48C5.14988 17.12 5.25989 16.66 5.61989 16.45L8.11989 14.95C9.89989 13.88 12.1099 13.88 13.8899 14.95C15.1899 15.73 16.8099 15.73 18.1199 14.95C19.8999 13.88 22.1099 13.88 23.8899 14.95L26.3899 16.45C26.7499 16.66 26.8599 17.12 26.6499 17.48C26.4999 17.72 26.2499 17.85 25.9999 17.85Z" fill="#292D32"/>
<path d="M11.0001 10.8503C10.0001 10.8503 9.0001 10.5803 8.1101 10.0503L5.6101 8.55027C5.2501 8.34027 5.14012 7.88027 5.35012 7.52027C5.56012 7.17027 6.02012 7.05027 6.38012 7.26027L8.88012 8.76027C10.1801 9.54027 11.8001 9.54027 13.1101 8.76027C14.8901 7.69027 17.1001 7.69027 18.8801 8.76027C20.1801 9.54027 21.8001 9.54027 23.1101 8.76027L25.6101 7.26027C25.9701 7.05027 26.4301 7.16027 26.6401 7.52027C26.8501 7.87027 26.7401 8.34027 26.3801 8.55027L23.8801 10.0503C22.1001 11.1203 19.8901 11.1203 18.1101 10.0503C16.8101 9.27027 15.1901 9.27027 13.8801 10.0503C13.0001 10.5803 12.0001 10.8503 11.0001 10.8503Z" fill="#292D32"/>
<path d="M25.9999 24.85C25.8699 24.85 25.7399 24.82 25.6199 24.74L23.1199 23.24C21.8199 22.46 20.1999 22.46 18.8899 23.24C17.1099 24.31 14.8999 24.31 13.1199 23.24C11.8199 22.46 10.1999 22.46 8.88991 23.24L6.38991 24.74C6.02991 24.95 5.56988 24.84 5.35988 24.48C5.14988 24.12 5.25989 23.66 5.61989 23.45L8.11989 21.95C9.89989 20.88 12.1099 20.88 13.8899 21.95C15.1899 22.73 16.8099 22.73 18.1199 21.95C19.8999 20.88 22.1099 20.88 23.8899 21.95L26.3899 23.45C26.7499 23.66 26.8599 24.12 26.6499 24.48C26.4999 24.72 26.2499 24.85 25.9999 24.85Z" fill="#292D32"/>
</svg>
