<svg width="32" height="32" viewBox="0 0 32 32" fill="none" xmlns="http://www.w3.org/2000/svg">
<path d="M20.5 26.7497H11.5C8.2 26.7497 7.75 24.9497 7.75 22.9997V14.2197C7.75 13.8097 8.09 13.4697 8.5 13.4697C8.91 13.4697 9.25 13.8097 9.25 14.2197V22.9997C9.25 24.7397 9.55 25.2497 11.5 25.2497H20.5C22.45 25.2497 22.75 24.7397 22.75 22.9997V14.2197C22.75 13.8097 23.09 13.4697 23.5 13.4697C23.91 13.4697 24.25 13.8097 24.25 14.2197V22.9997C24.25 24.9497 23.8 26.7497 20.5 26.7497Z" fill="#292D32"/>
<path d="M23 14.75H9C6.58 14.75 5.25 13.42 5.25 11V9C5.25 6.58 6.58 5.25 9 5.25H23C25.42 5.25 26.75 6.58 26.75 9V11C26.75 13.42 25.42 14.75 23 14.75ZM9 6.75C7.42 6.75 6.75 7.42 6.75 9V11C6.75 12.58 7.42 13.25 9 13.25H23C24.58 13.25 25.25 12.58 25.25 11V9C25.25 7.42 24.58 6.75 23 6.75H9Z" fill="#292D32"/>
<path d="M17.8197 18.75H14.1797C13.7697 18.75 13.4297 18.41 13.4297 18C13.4297 17.59 13.7697 17.25 14.1797 17.25H17.8197C18.2297 17.25 18.5697 17.59 18.5697 18C18.5697 18.41 18.2297 18.75 17.8197 18.75Z" fill="#292D32"/>
</svg>
