<svg width="24" height="24" viewBox="0 0 24 24" fill="none" xmlns="http://www.w3.org/2000/svg">
<path d="M11.5525 4.3625C11.7425 4.3625 11.9325 4.4325 12.0825 4.5825C12.3725 4.8725 12.3725 5.3525 12.0825 5.6425L6.54249 11.1825L12.0825 16.7225C12.3725 17.0125 12.3725 17.4925 12.0825 17.7825C11.7925 18.0725 11.3125 18.0725 11.0225 17.7825L4.95249 11.7125C4.66249 11.4225 4.66249 10.9425 4.95249 10.6525L11.0225 4.5825C11.1725 4.4325 11.3625 4.3625 11.5525 4.3625Z" fill="#292D32" stroke="#292D32" stroke-width="0.3"/>
<path d="M5.57283 10.5L18.4272 10.5C18.7403 10.5 19 10.84 19 11.25C19 11.66 18.7403 12 18.4272 12L5.57283 12C5.25968 12 5 11.66 5 11.25C5 10.84 5.25968 10.5 5.57283 10.5Z" fill="#292D32" stroke="#292D32" stroke-width="0.3"/>
</svg>
