<svg width="24" height="24" viewBox="0 0 24 24" fill="none" xmlns="http://www.w3.org/2000/svg">
<path d="M8 5.74994C7.59 5.74994 7.25 5.40994 7.25 4.99994V1.99994C7.25 1.58994 7.59 1.24994 8 1.24994C8.41 1.24994 8.75 1.58994 8.75 1.99994V4.99994C8.75 5.40994 8.41 5.74994 8 5.74994Z" fill="#292D32" stroke="#292D32" stroke-width="0.3"/>
<path d="M16 5.74994C15.59 5.74994 15.25 5.40994 15.25 4.99994V1.99994C15.25 1.58994 15.59 1.24994 16 1.24994C16.41 1.24994 16.75 1.58994 16.75 1.99994V4.99994C16.75 5.40994 16.41 5.74994 16 5.74994Z" fill="#292D32" stroke="#292D32" stroke-width="0.3"/>
<path d="M8.5 14.4999C8.37 14.4999 8.24 14.47 8.12 14.42C7.99 14.37 7.89 14.2999 7.79 14.2099C7.61 14.0199 7.5 13.7699 7.5 13.4999C7.5 13.3699 7.53 13.2399 7.58 13.1199C7.63 12.9999 7.7 12.89 7.79 12.79C7.89 12.7 7.99 12.6299 8.12 12.5799C8.48 12.4299 8.93 12.51 9.21 12.79C9.39 12.98 9.5 13.2399 9.5 13.4999C9.5 13.5599 9.49 13.63 9.48 13.7C9.47 13.76 9.45 13.82 9.42 13.88C9.4 13.94 9.37 13.9999 9.33 14.0599C9.3 14.1099 9.25 14.1599 9.21 14.2099C9.02 14.3899 8.76 14.4999 8.5 14.4999Z" fill="#292D32" stroke="#292D32" stroke-width="0.3"/>
<path d="M12 14.4999C11.87 14.4999 11.74 14.4699 11.62 14.4199C11.49 14.3699 11.39 14.2999 11.29 14.2099C11.11 14.0199 11 13.7699 11 13.4999C11 13.3699 11.03 13.2399 11.08 13.1199C11.13 12.9999 11.2 12.8899 11.29 12.7899C11.39 12.6999 11.49 12.6299 11.62 12.5799C11.98 12.4199 12.43 12.5099 12.71 12.7899C12.89 12.9799 13 13.2399 13 13.4999C13 13.5599 12.99 13.6299 12.98 13.6999C12.97 13.7599 12.95 13.8199 12.92 13.8799C12.9 13.9399 12.87 13.9999 12.83 14.0599C12.8 14.1099 12.75 14.1599 12.71 14.2099C12.52 14.3899 12.26 14.4999 12 14.4999Z" fill="#292D32" stroke="#292D32" stroke-width="0.3"/>
<path d="M15.5 14.4999C15.37 14.4999 15.24 14.4699 15.12 14.4199C14.99 14.3699 14.89 14.2999 14.79 14.2099C14.75 14.1599 14.71 14.1099 14.67 14.0599C14.63 13.9999 14.6 13.9399 14.58 13.8799C14.55 13.8199 14.53 13.7599 14.52 13.6999C14.51 13.6299 14.5 13.5599 14.5 13.4999C14.5 13.2399 14.61 12.9799 14.79 12.7899C14.89 12.6999 14.99 12.6299 15.12 12.5799C15.49 12.4199 15.93 12.5099 16.21 12.7899C16.39 12.9799 16.5 13.2399 16.5 13.4999C16.5 13.5599 16.49 13.6299 16.48 13.6999C16.47 13.7599 16.45 13.8199 16.42 13.8799C16.4 13.9399 16.37 13.9999 16.33 14.0599C16.3 14.1099 16.25 14.1599 16.21 14.2099C16.02 14.3899 15.76 14.4999 15.5 14.4999Z" fill="#292D32" stroke="#292D32" stroke-width="0.3"/>
<path d="M8.5 17.9999C8.37 17.9999 8.24 17.97 8.12 17.92C8 17.87 7.89 17.7999 7.79 17.7099C7.61 17.5199 7.5 17.2599 7.5 16.9999C7.5 16.8699 7.53 16.7399 7.58 16.6199C7.63 16.4899 7.7 16.38 7.79 16.29C8.16 15.92 8.84 15.92 9.21 16.29C9.39 16.48 9.5 16.7399 9.5 16.9999C9.5 17.2599 9.39 17.5199 9.21 17.7099C9.02 17.8899 8.76 17.9999 8.5 17.9999Z" fill="#292D32" stroke="#292D32" stroke-width="0.3"/>
<path d="M12 17.9999C11.74 17.9999 11.48 17.8899 11.29 17.7099C11.11 17.5199 11 17.2599 11 16.9999C11 16.8699 11.03 16.7399 11.08 16.6199C11.13 16.4899 11.2 16.38 11.29 16.29C11.66 15.92 12.34 15.92 12.71 16.29C12.8 16.38 12.87 16.4899 12.92 16.6199C12.97 16.7399 13 16.8699 13 16.9999C13 17.2599 12.89 17.5199 12.71 17.7099C12.52 17.8899 12.26 17.9999 12 17.9999Z" fill="#292D32" stroke="#292D32" stroke-width="0.3"/>
<path d="M15.5 18C15.24 18 14.98 17.89 14.79 17.71C14.7 17.62 14.63 17.51 14.58 17.38C14.53 17.26 14.5 17.13 14.5 17C14.5 16.87 14.53 16.74 14.58 16.62C14.63 16.49 14.7 16.38 14.79 16.29C15.02 16.06 15.37 15.95 15.69 16.02C15.76 16.03 15.82 16.05 15.88 16.08C15.94 16.1 16 16.13 16.06 16.17C16.11 16.2 16.16 16.25 16.21 16.29C16.39 16.48 16.5 16.74 16.5 17C16.5 17.26 16.39 17.52 16.21 17.71C16.02 17.89 15.76 18 15.5 18Z" fill="#292D32" stroke="#292D32" stroke-width="0.3"/>
<path d="M20.5 9.8399H3.5C3.09 9.8399 2.75 9.4999 2.75 9.0899C2.75 8.6799 3.09 8.3399 3.5 8.3399H20.5C20.91 8.3399 21.25 8.6799 21.25 9.0899C21.25 9.4999 20.91 9.8399 20.5 9.8399Z" fill="#292D32" stroke="#292D32" stroke-width="0.3"/>
<path d="M16 22.7499H8C4.35 22.7499 2.25 20.6499 2.25 16.9999V8.49994C2.25 4.84994 4.35 2.74994 8 2.74994H16C19.65 2.74994 21.75 4.84994 21.75 8.49994V16.9999C21.75 20.6499 19.65 22.7499 16 22.7499ZM8 4.24994C5.14 4.24994 3.75 5.63994 3.75 8.49994V16.9999C3.75 19.8599 5.14 21.2499 8 21.2499H16C18.86 21.2499 20.25 19.8599 20.25 16.9999V8.49994C20.25 5.63994 18.86 4.24994 16 4.24994H8Z" fill="#292D32" stroke="#292D32" stroke-width="0.3"/>
</svg>
