<svg width="24" height="24" viewBox="0 0 24 24" fill="none" xmlns="http://www.w3.org/2000/svg">
<path d="M1.942 15C1.942 14.7348 2.04736 14.4804 2.23489 14.2929C2.42243 14.1054 2.67678 14 2.942 14C4.28298 14.0016 5.56858 14.535 6.51679 15.4832C7.46501 16.4314 7.99841 17.717 8 19.058C8 19.3232 7.89464 19.5776 7.70711 19.7651C7.51957 19.9526 7.26522 20.058 7 20.058C6.73478 20.058 6.48043 19.9526 6.29289 19.7651C6.10536 19.5776 6 19.3232 6 19.058C5.99894 18.2473 5.67642 17.4701 5.10316 16.8968C4.52991 16.3236 3.75271 16.0011 2.942 16C2.67678 16 2.42243 15.8946 2.23489 15.7071C2.04736 15.5196 1.942 15.2652 1.942 15ZM1 19.5C1 19.7967 1.08797 20.0867 1.2528 20.3334C1.41762 20.58 1.65189 20.7723 1.92597 20.8858C2.20006 20.9993 2.50166 21.0291 2.79264 20.9712C3.08361 20.9133 3.35088 20.7704 3.56066 20.5607C3.77044 20.3509 3.9133 20.0836 3.97118 19.7926C4.02906 19.5017 3.99935 19.2001 3.88582 18.926C3.77229 18.6519 3.58003 18.4176 3.33336 18.2528C3.08668 18.088 2.79667 18 2.5 18C2.10218 18 1.72064 18.158 1.43934 18.4393C1.15804 18.7206 1 19.1022 1 19.5ZM3 10C2.73478 10 2.48043 10.1054 2.29289 10.2929C2.10536 10.4804 2 10.7348 2 11C2 11.2652 2.10536 11.5196 2.29289 11.7071C2.48043 11.8946 2.73478 12 3 12C4.85578 12.0024 6.63488 12.7406 7.94712 14.0529C9.25936 15.3651 9.99762 17.1442 10 19C10 19.2652 10.1054 19.5196 10.2929 19.7071C10.4804 19.8946 10.7348 20 11 20C11.2652 20 11.5196 19.8946 11.7071 19.7071C11.8946 19.5196 12 19.2652 12 19C11.9974 16.6139 11.0483 14.3262 9.36104 12.639C7.67378 10.9517 5.38614 10.0026 3 10ZM22 3H2C1.73478 3 1.48043 3.10536 1.29289 3.29289C1.10536 3.48043 1 3.73478 1 4V6C1 6.26522 1.10536 6.51957 1.29289 6.70711C1.48043 6.89464 1.73478 7 2 7C2.26522 7 2.51957 6.89464 2.70711 6.70711C2.89464 6.51957 3 6.26522 3 6V5H21V19H16C15.7348 19 15.4804 19.1054 15.2929 19.2929C15.1054 19.4804 15 19.7348 15 20C15 20.2652 15.1054 20.5196 15.2929 20.7071C15.4804 20.8946 15.7348 21 16 21H22C22.2652 21 22.5196 20.8946 22.7071 20.7071C22.8946 20.5196 23 20.2652 23 20V4C23 3.73478 22.8946 3.48043 22.7071 3.29289C22.5196 3.10536 22.2652 3 22 3Z" fill="black"/>
</svg>
