<svg width="24" height="24" viewBox="0 0 24 24" fill="none" xmlns="http://www.w3.org/2000/svg">
<path d="M21 3C21.2652 3 21.5196 3.10536 21.7071 3.29289C21.8946 3.48043 22 3.73478 22 4V16C22 16.2652 21.8946 16.5196 21.7071 16.7071C21.5196 16.8946 21.2652 17 21 17H11.351L6.625 20.781C6.47791 20.8988 6.30053 20.9726 6.11331 20.9939C5.92609 21.0153 5.73665 20.9833 5.56682 20.9017C5.39698 20.8201 5.25367 20.6921 5.15338 20.5326C5.0531 20.373 4.99993 20.1884 5 20V17H3C2.73478 17 2.48043 16.8946 2.29289 16.7071C2.10536 16.5196 2 16.2652 2 16V4C2 3.73478 2.10536 3.48043 2.29289 3.29289C2.48043 3.10536 2.73478 3 3 3H21ZM4 15H6C6.26522 15 6.51957 15.1054 6.70711 15.2929C6.89464 15.4804 7 15.7348 7 16V17.919L10.375 15.219C10.5524 15.0771 10.7728 14.9999 11 15H20V5H4V15Z" fill="black"/>
</svg>
