<svg width="24" height="24" viewBox="0 0 24 24" fill="none" xmlns="http://www.w3.org/2000/svg">
<path d="M1.1 11.9999C1.1 18.0128 5.98716 22.8999 12 22.8999C18.0128 22.8999 22.9 18.0128 22.9 11.9999C22.9 5.9871 18.0128 1.09994 12 1.09994C5.98716 1.09994 1.1 5.9871 1.1 11.9999ZM2.9 11.9999C2.9 6.98278 6.98284 2.89994 12 2.89994C17.0172 2.89994 21.1 6.98278 21.1 11.9999C21.1 17.0171 17.0172 21.0999 12 21.0999C6.98284 21.0999 2.9 17.0171 2.9 11.9999Z" fill="#292D32" stroke="#292D32" stroke-width="0.3"/>
<path d="M12.1532 14.0987L12.1533 14.0988L15.2502 15.9469C15.3983 16.0446 15.5573 16.0799 15.7101 16.0799C16.0121 16.0799 16.31 15.9231 16.4873 15.6394L16.4874 15.6395L16.4897 15.6355C16.7393 15.2076 16.6108 14.6547 16.1764 14.4008L13.077 12.5511L13.077 12.5511L13.0755 12.5502C12.9521 12.4786 12.816 12.3259 12.7093 12.1383C12.6027 11.9509 12.5401 11.7544 12.5401 11.6099V7.50995C12.5401 7.01711 12.133 6.60995 11.6401 6.60995C11.1473 6.60995 10.7401 7.01711 10.7401 7.50995V11.6099C10.7401 12.5526 11.3378 13.6116 12.1532 14.0987Z" fill="#292D32" stroke="#292D32" stroke-width="0.3"/>
</svg>
