<svg width="32" height="32" viewBox="0 0 32 32" fill="none" xmlns="http://www.w3.org/2000/svg">
<path d="M14 21.7003H10.21C6.41 21.7003 5.25 20.5403 5.25 16.7403V10.7403C5.25 6.94027 6.41 5.78027 10.21 5.78027H20.74C24.54 5.78027 25.7 6.94027 25.7 10.7403C25.7 11.1503 25.36 11.4903 24.95 11.4903C24.54 11.4903 24.2 11.1503 24.2 10.7403C24.2 7.80027 23.68 7.28027 20.74 7.28027H10.21C7.27 7.28027 6.75 7.80027 6.75 10.7403V16.7403C6.75 19.6803 7.27 20.2003 10.21 20.2003H14C14.41 20.2003 14.75 20.5403 14.75 20.9503C14.75 21.3603 14.41 21.7003 14 21.7003Z" fill="#292D32"/>
<path d="M14 26.2199C13.59 26.2199 13.25 25.8799 13.25 25.4699V20.9399C13.25 20.5299 13.59 20.1899 14 20.1899C14.41 20.1899 14.75 20.5299 14.75 20.9399V25.4699C14.75 25.8899 14.41 26.2199 14 26.2199Z" fill="#292D32"/>
<path d="M14 17.7002H6C5.59 17.7002 5.25 17.3602 5.25 16.9502C5.25 16.5402 5.59 16.2002 6 16.2002H14C14.41 16.2002 14.75 16.5402 14.75 16.9502C14.75 17.3602 14.41 17.7002 14 17.7002Z" fill="#292D32"/>
<path d="M14.0002 26.2197H10.7402C10.3302 26.2197 9.99023 25.8797 9.99023 25.4697C9.99023 25.0597 10.3302 24.7197 10.7402 24.7197H14.0002C14.4102 24.7197 14.7502 25.0597 14.7502 25.4697C14.7502 25.8797 14.4102 26.2197 14.0002 26.2197Z" fill="#292D32"/>
<path d="M23.0398 26.2198H19.4898C16.7198 26.2198 15.7798 25.2798 15.7798 22.5098V16.7998C15.7798 14.0298 16.7198 13.0898 19.4898 13.0898H23.0398C25.8098 13.0898 26.7498 14.0298 26.7498 16.7998V22.5098C26.7498 25.2898 25.8098 26.2198 23.0398 26.2198ZM19.4898 14.5898C17.5298 14.5898 17.2798 14.8398 17.2798 16.7998V22.5098C17.2798 24.4698 17.5298 24.7198 19.4898 24.7198H23.0398C24.9998 24.7198 25.2498 24.4698 25.2498 22.5098V16.7998C25.2498 14.8398 24.9998 14.5898 23.0398 14.5898H19.4898Z" fill="#292D32"/>
<path d="M21.2998 22.9698C21.0398 22.9698 20.7798 22.8698 20.5898 22.6798C20.4998 22.5898 20.4298 22.4798 20.3798 22.3598C20.3298 22.2298 20.2998 22.0998 20.2998 21.9698C20.2998 21.7098 20.4098 21.4498 20.5898 21.2698C20.8198 21.0398 21.1698 20.9298 21.4998 20.9898C21.5598 21.0098 21.6198 21.0298 21.6798 21.0498C21.7398 21.0798 21.7998 21.1098 21.8498 21.1398C21.9098 21.1798 21.9598 21.2198 22.0098 21.2698C22.1898 21.4498 22.2998 21.7098 22.2998 21.9698C22.2998 22.0998 22.2698 22.2298 22.2198 22.3598C22.1698 22.4798 22.0998 22.5898 22.0098 22.6798C21.9598 22.7298 21.9098 22.7698 21.8498 22.7998C21.7998 22.8398 21.7398 22.8698 21.6798 22.8998C21.6198 22.9198 21.5598 22.9398 21.4998 22.9498C21.4298 22.9698 21.3698 22.9698 21.2998 22.9698Z" fill="#292D32"/>
</svg>
