<svg width="24" height="24" viewBox="0 0 24 24" fill="none" xmlns="http://www.w3.org/2000/svg">
<path d="M7.293 13.707C7.19749 13.6148 7.12131 13.5044 7.0689 13.3824C7.01649 13.2604 6.9889 13.1292 6.98775 12.9964C6.9866 12.8636 7.0119 12.7319 7.06218 12.609C7.11246 12.4861 7.18671 12.3745 7.2806 12.2806C7.3745 12.1867 7.48615 12.1125 7.60905 12.0622C7.73194 12.0119 7.86362 11.9866 7.9964 11.9877C8.12918 11.9889 8.2604 12.0165 8.3824 12.0689C8.50441 12.1213 8.61475 12.1975 8.707 12.293L11 14.586V3C11 2.73478 11.1054 2.48043 11.2929 2.29289C11.4804 2.10536 11.7348 2 12 2C12.2652 2 12.5196 2.10536 12.7071 2.29289C12.8946 2.48043 13 2.73478 13 3V14.586L15.293 12.293C15.4816 12.1108 15.7342 12.01 15.9964 12.0123C16.2586 12.0146 16.5094 12.1198 16.6948 12.3052C16.8802 12.4906 16.9854 12.7414 16.9877 13.0036C16.99 13.2658 16.8892 13.5184 16.707 13.707L12.707 17.707C12.6139 17.7996 12.5035 17.873 12.382 17.923C12.2611 17.9738 12.1312 18 12 18C11.8688 18 11.7389 17.9738 11.618 17.923C11.4965 17.873 11.3861 17.7996 11.293 17.707L7.293 13.707ZM22 12C21.7348 12 21.4804 12.1054 21.2929 12.2929C21.1054 12.4804 21 12.7348 21 13V20H3V13C3 12.7348 2.89464 12.4804 2.70711 12.2929C2.51957 12.1054 2.26522 12 2 12C1.73478 12 1.48043 12.1054 1.29289 12.2929C1.10536 12.4804 1 12.7348 1 13V21C1 21.2652 1.10536 21.5196 1.29289 21.7071C1.48043 21.8946 1.73478 22 2 22H22C22.2652 22 22.5196 21.8946 22.7071 21.7071C22.8946 21.5196 23 21.2652 23 21V13C23 12.7348 22.8946 12.4804 22.7071 12.2929C22.5196 12.1054 22.2652 12 22 12Z" fill="black"/>
</svg>
