<svg width="32" height="32" viewBox="0 0 32 32" fill="none" xmlns="http://www.w3.org/2000/svg">
<path d="M9.53999 25.0938C8.92999 25.0938 8.35999 24.8838 7.94999 24.4938C7.42999 24.0038 7.17999 23.2638 7.26999 22.4638L7.63999 19.2238C7.70999 18.6138 8.07999 17.8038 8.50999 17.3638L16.72 8.67378C18.77 6.50378 20.91 6.44378 23.08 8.49378C25.25 10.5438 25.31 12.6838 23.26 14.8538L15.05 23.5438C14.63 23.9938 13.85 24.4138 13.24 24.5138L10.02 25.0638C9.84999 25.0738 9.69999 25.0938 9.53999 25.0938ZM19.93 8.48378C19.16 8.48378 18.49 8.96378 17.81 9.68378L9.59999 18.3838C9.39999 18.5938 9.16999 19.0938 9.12999 19.3838L8.75999 22.6238C8.71999 22.9538 8.79999 23.2238 8.97999 23.3938C9.15999 23.5638 9.42999 23.6238 9.75999 23.5738L12.98 23.0238C13.27 22.9738 13.75 22.7138 13.95 22.5038L22.16 13.8138C23.4 12.4938 23.85 11.2738 22.04 9.57378C21.24 8.80378 20.55 8.48378 19.93 8.48378Z" fill="#292D32"/>
<path d="M21.3399 16.5236C21.3199 16.5236 21.2899 16.5236 21.2699 16.5236C18.1499 16.2136 15.6399 13.8436 15.1599 10.7436C15.0999 10.3336 15.3799 9.95358 15.7899 9.88358C16.1999 9.82358 16.5799 10.1036 16.6499 10.5136C17.0299 12.9336 18.9899 14.7936 21.4299 15.0336C21.8399 15.0736 22.1399 15.4436 22.0999 15.8536C22.0499 16.2336 21.7199 16.5236 21.3399 16.5236Z" fill="#292D32"/>
</svg>
