<svg width="32" height="32" viewBox="0 0 32 32" fill="none" xmlns="http://www.w3.org/2000/svg">
<path d="M27 26.75H5C4.59 26.75 4.25 26.41 4.25 26C4.25 25.59 4.59 25.25 5 25.25H27C27.41 25.25 27.75 25.59 27.75 26C27.75 26.41 27.41 26.75 27 26.75Z" fill="#292D32"/>
<path d="M23.7803 26.7598C23.3703 26.7598 23.0303 26.4198 23.0303 26.0098V21.5498C23.0303 21.1398 23.3703 20.7998 23.7803 20.7998C24.1903 20.7998 24.5303 21.1398 24.5303 21.5498V26.0098C24.5303 26.4198 24.2003 26.7598 23.7803 26.7598Z" fill="#292D32"/>
<path d="M23.8001 22.2999C22.1701 22.2999 20.8501 20.9799 20.8501 19.3499V17.0799C20.8501 15.4499 22.1701 14.1299 23.8001 14.1299C25.4301 14.1299 26.7501 15.4499 26.7501 17.0799V19.3499C26.7501 20.9799 25.4301 22.2999 23.8001 22.2999ZM23.8001 15.6399C23.0001 15.6399 22.3501 16.2899 22.3501 17.0899V19.3599C22.3501 20.1599 23.0001 20.8099 23.8001 20.8099C24.6001 20.8099 25.2501 20.1599 25.2501 19.3599V17.0899C25.2501 16.2899 24.6001 15.6399 23.8001 15.6399Z" fill="#292D32"/>
<path d="M18.2998 26.7498C17.8898 26.7498 17.5498 26.4098 17.5498 25.9998V10.0298C17.5498 8.43979 16.8798 7.75977 15.3198 7.75977H9.08984C7.51984 7.75977 6.83984 8.43979 6.83984 10.0298V25.9998C6.83984 26.4098 6.49984 26.7498 6.08984 26.7498C5.67984 26.7498 5.33984 26.4098 5.33984 25.9998V10.0298C5.33984 7.59979 6.66984 6.25977 9.08984 6.25977H15.3198C17.7298 6.25977 19.0498 7.59979 19.0498 10.0298V25.9998C19.0498 26.4098 18.7098 26.7498 18.2998 26.7498Z" fill="#292D32"/>
<path d="M14.7498 13H9.7998C9.3898 13 9.0498 12.66 9.0498 12.25C9.0498 11.84 9.3898 11.5 9.7998 11.5H14.7498C15.1598 11.5 15.4998 11.84 15.4998 12.25C15.4998 12.66 15.1598 13 14.7498 13Z" fill="#292D32"/>
<path d="M14.7498 16.75H9.7998C9.3898 16.75 9.0498 16.41 9.0498 16C9.0498 15.59 9.3898 15.25 9.7998 15.25H14.7498C15.1598 15.25 15.4998 15.59 15.4998 16C15.4998 16.41 15.1598 16.75 14.7498 16.75Z" fill="#292D32"/>
<path d="M12.25 26.75C11.84 26.75 11.5 26.41 11.5 26V22.25C11.5 21.84 11.84 21.5 12.25 21.5C12.66 21.5 13 21.84 13 22.25V26C13 26.41 12.66 26.75 12.25 26.75Z" fill="#292D32"/>
</svg>
