<svg width="32" height="32" viewBox="0 0 32 32" fill="none" xmlns="http://www.w3.org/2000/svg">
<path d="M21.5 26.75H7.5C7.09 26.75 6.75 26.41 6.75 26V9C6.75 6.76 8.26 5.25 10.5 5.25H18.5C20.74 5.25 22.25 6.76 22.25 9V26C22.25 26.41 21.91 26.75 21.5 26.75ZM8.25 25.25H20.75V9C20.75 7.59 19.91 6.75 18.5 6.75H10.5C9.09 6.75 8.25 7.59 8.25 9V25.25Z" fill="#292D32"/>
<path d="M23 26.75H6C5.59 26.75 5.25 26.41 5.25 26C5.25 25.59 5.59 25.25 6 25.25H23C23.41 25.25 23.75 25.59 23.75 26C23.75 26.41 23.41 26.75 23 26.75Z" fill="#292D32"/>
<path d="M16.6102 14.7502H12.3802C10.7502 14.7502 9.74023 13.7402 9.74023 12.1102V10.8802C9.74023 9.25023 10.7502 8.24023 12.3802 8.24023H16.6102C18.2402 8.24023 19.2502 9.25023 19.2502 10.8802V12.1102C19.2502 13.7402 18.2402 14.7502 16.6102 14.7502ZM12.3902 9.75023C11.5802 9.75023 11.2502 10.0802 11.2502 10.8902V12.1202C11.2502 12.9302 11.5802 13.2602 12.3902 13.2602H16.6202C17.4302 13.2602 17.7602 12.9302 17.7602 12.1202V10.8902C17.7602 10.0802 17.4302 9.75023 16.6202 9.75023H12.3902Z" fill="#292D32"/>
<path d="M13.5 17.75H10.5C10.09 17.75 9.75 17.41 9.75 17C9.75 16.59 10.09 16.25 10.5 16.25H13.5C13.91 16.25 14.25 16.59 14.25 17C14.25 17.41 13.91 17.75 13.5 17.75Z" fill="#292D32"/>
<path d="M21.5 20.7602C21.09 20.7602 20.75 20.4302 20.75 20.0102C20.75 19.6002 21.08 19.2602 21.5 19.2602L25.25 19.2502V14.4602L23.66 13.6702C23.29 13.4802 23.14 13.0302 23.32 12.6602C23.51 12.2902 23.96 12.1402 24.33 12.3202L26.33 13.3202C26.58 13.4502 26.74 13.7102 26.74 13.9902V19.9902C26.74 20.4002 26.41 20.7402 25.99 20.7402L21.5 20.7602Z" fill="#292D32"/>
</svg>
