<svg width="32" height="32" viewBox="0 0 32 32" fill="none" xmlns="http://www.w3.org/2000/svg">
<path d="M21.79 26.75H10.21C7.47 26.75 5.25 24.52 5.25 21.78V14.37C5.25 13.01 6.09 11.3 7.17 10.46L12.56 6.25997C14.18 4.99997 16.77 4.93997 18.45 6.11997L24.63 10.45C25.82 11.28 26.75 13.06 26.75 14.51V21.79C26.75 24.52 24.53 26.75 21.79 26.75ZM13.48 7.43997L8.09 11.64C7.38 12.2 6.75 13.47 6.75 14.37V21.78C6.75 23.69 8.3 25.25 10.21 25.25H21.79C23.7 25.25 25.25 23.7 25.25 21.79V14.51C25.25 13.55 24.56 12.22 23.77 11.68L17.59 7.34997C16.45 6.54997 14.57 6.58997 13.48 7.43997Z" fill="#292D32" stroke="#292D32" stroke-width="0.3"/>
<path d="M16 22.75C15.59 22.75 15.25 22.41 15.25 22V19C15.25 18.59 15.59 18.25 16 18.25C16.41 18.25 16.75 18.59 16.75 19V22C16.75 22.41 16.41 22.75 16 22.75Z" fill="#292D32" stroke="#292D32" stroke-width="0.3"/>
</svg>
