<svg width="32" height="32" viewBox="0 0 32 32" fill="none" xmlns="http://www.w3.org/2000/svg">
<path d="M10.1801 26.7499C10.0801 26.7499 9.97014 26.7399 9.88014 26.7299L7.71014 26.4299C6.67014 26.2899 5.73014 25.3599 5.57014 24.2999L5.27014 22.1099C5.17014 21.4099 5.47014 20.4999 5.97014 19.9899L10.3601 15.5999C9.65014 12.7599 10.4701 9.75992 12.5601 7.68992C15.8001 4.45992 21.0701 4.44992 24.3201 7.68992C25.8901 9.25992 26.7501 11.3499 26.7501 13.5699C26.7501 15.7899 25.8901 17.8799 24.3201 19.4499C22.2201 21.5299 19.2301 22.3499 16.4101 21.6299L12.0101 26.0199C11.5901 26.4599 10.8401 26.7499 10.1801 26.7499ZM18.4301 6.75992C16.6801 6.75992 14.9401 7.41992 13.6101 8.74992C11.8101 10.5399 11.1601 13.1599 11.9101 15.5999C11.9901 15.8699 11.9201 16.1499 11.7201 16.3499L7.02014 21.0499C6.85014 21.2199 6.71014 21.6599 6.74014 21.8899L7.04014 24.0799C7.10014 24.4599 7.51014 24.8899 7.89014 24.9399L10.0701 25.2399C10.3101 25.2799 10.7501 25.1399 10.9201 24.9699L15.6401 20.2599C15.8401 20.0599 16.1301 19.9999 16.3901 20.0799C18.8001 20.8399 21.4301 20.1899 23.2301 18.3899C24.5101 17.1099 25.2201 15.3899 25.2201 13.5699C25.2201 11.7399 24.5101 10.0299 23.2301 8.74992C21.9301 7.42992 20.1801 6.75992 18.4301 6.75992Z" fill="#292D32"/>
<path d="M13.1901 24.5402C13.0001 24.5402 12.8101 24.4702 12.6601 24.3202L10.3601 22.0202C10.0701 21.7302 10.0701 21.2502 10.3601 20.9602C10.6501 20.6702 11.1301 20.6702 11.4201 20.9602L13.7201 23.2602C14.0101 23.5502 14.0101 24.0302 13.7201 24.3202C13.5701 24.4702 13.3801 24.5402 13.1901 24.5402Z" fill="#292D32"/>
<path d="M18.5 15.75C17.26 15.75 16.25 14.74 16.25 13.5C16.25 12.26 17.26 11.25 18.5 11.25C19.74 11.25 20.75 12.26 20.75 13.5C20.75 14.74 19.74 15.75 18.5 15.75ZM18.5 12.75C18.09 12.75 17.75 13.09 17.75 13.5C17.75 13.91 18.09 14.25 18.5 14.25C18.91 14.25 19.25 13.91 19.25 13.5C19.25 13.09 18.91 12.75 18.5 12.75Z" fill="#292D32"/>
</svg>
