<svg width="24" height="24" viewBox="0 0 24 24" fill="none" xmlns="http://www.w3.org/2000/svg">
<path d="M9.293 3.293C9.4816 3.11085 9.7342 3.01005 9.9964 3.01233C10.2586 3.01461 10.5094 3.11978 10.6948 3.30519C10.8802 3.49059 10.9854 3.74141 10.9877 4.0036C10.99 4.2658 10.8892 4.5184 10.707 4.70701L4.414 11L22 11C22.2652 11 22.5196 11.1054 22.7071 11.2929C22.8946 11.4804 23 11.7348 23 12C23 12.2652 22.8946 12.5196 22.7071 12.7071C22.5196 12.8946 22.2652 13 22 13L4.414 13L10.707 19.293C10.8892 19.4816 10.99 19.7342 10.9877 19.9964C10.9854 20.2586 10.8802 20.5094 10.6948 20.6948C10.5094 20.8802 10.2586 20.9854 9.9964 20.9877C9.7342 20.99 9.4816 20.8892 9.293 20.707L1.293 12.707C1.20036 12.6139 1.12696 12.5035 1.077 12.382C1.02617 12.2611 0.999994 12.1312 0.999994 12C0.999994 11.8688 1.02617 11.7389 1.077 11.618C1.12696 11.4965 1.20036 11.3861 1.293 11.293L9.293 3.293Z" fill="black"/>
</svg>
