<svg width="32" height="32" viewBox="0 0 32 32" fill="none" xmlns="http://www.w3.org/2000/svg">
<path d="M15.7104 17.6234L15.7105 17.6233L15.7054 17.6203C15.4161 17.4515 15.3213 17.0824 15.48 16.8044C15.4801 16.8044 15.4801 16.8044 15.4801 16.8043L16.3299 15.3246L16.459 15.0999H16.1999H15.3599C14.9053 15.0999 14.5486 14.9017 14.3592 14.584C14.1714 14.2588 14.1815 13.8568 14.4101 13.4543C14.4102 13.4542 14.4102 13.4541 14.4103 13.454L15.4794 11.5955C15.4795 11.5954 15.4796 11.5952 15.4797 11.5951C15.6485 11.3062 16.0171 11.2115 16.2949 11.3698C16.5838 11.5388 16.6784 11.9077 16.5196 12.1855L16.5196 12.1856L15.6696 13.6756L15.5416 13.8999H15.7999H16.6399C17.0944 13.8999 17.4512 14.0981 17.6405 14.4158C17.8284 14.741 17.8182 15.143 17.5896 15.5455C17.5896 15.5456 17.5895 15.5457 17.5894 15.5458L16.5203 17.4043C16.5202 17.4045 16.5201 17.4046 16.5201 17.4047C16.4085 17.5956 16.2097 17.6999 15.9999 17.6999C15.8921 17.6999 15.7915 17.675 15.7104 17.6234Z" fill="#292D32" stroke="black" stroke-width="0.3"/>
<path d="M11.7 22.1846L11.7001 22.1846V22.1798V21.2898V21.2095L11.6333 21.165C9.15034 19.5097 7.52012 16.6342 7.52012 13.9098C7.52012 11.3253 8.67947 8.90824 10.6942 7.28665C12.7079 5.66582 15.3512 5.05586 17.9378 5.62628L17.9379 5.6263C20.3945 6.16675 22.5164 7.80809 23.6158 10.0165C25.7452 14.3048 23.6982 18.9578 20.4063 21.1754L20.3401 21.22V21.2998V22.0498H20.34L20.3402 22.055C20.3502 22.3442 20.3547 22.813 19.9943 23.1835C19.7192 23.4488 19.321 23.5998 18.7701 23.5998H13.2601C12.8207 23.5998 12.3202 23.5465 11.9976 23.2152C11.6862 22.8951 11.69 22.4969 11.7 22.1846ZM12.8801 22.3798H12.8901V22.3898H13.0401C13.0556 22.3898 13.0742 22.3912 13.1035 22.3933C13.1085 22.3936 13.1138 22.394 13.1194 22.3944C13.1554 22.397 13.1997 22.3998 13.2501 22.3998H18.7701C18.879 22.3998 18.9617 22.389 19.0165 22.3753L19.1301 22.3469V22.2298V22.2296V22.2295V22.2293V22.2291V22.2289V22.2287V22.2286V22.2284V22.2282V22.228V22.2279V22.2277V22.2275V22.2273V22.2271V22.227V22.2268V22.2266V22.2264V22.2262V22.2261V22.2259V22.2257V22.2255V22.2253V22.2252V22.225V22.2248V22.2246V22.2244V22.2242V22.2241V22.2239V22.2237V22.2235V22.2233V22.2232V22.223V22.2228V22.2226V22.2224V22.2222V22.222V22.2219V22.2217V22.2215V22.2213V22.2211V22.2209V22.2207V22.2206V22.2204V22.2202V22.22V22.2198V22.2196V22.2194V22.2193V22.2191V22.2189V22.2187V22.2185V22.2183V22.2181V22.2179V22.2177V22.2176V22.2174V22.2172V22.217V22.2168V22.2166V22.2164V22.2162V22.216V22.2158V22.2157V22.2155V22.2153V22.2151V22.2149V22.2147V22.2145V22.2143V22.2141V22.2139V22.2137V22.2135V22.2134V22.2132V22.213V22.2128V22.2126V22.2124V22.2122V22.212V22.2118V22.2116V22.2114V22.2112V22.211V22.2108V22.2106V22.2105V22.2103V22.2101V22.2099V22.2097V22.2095V22.2093V22.2091V22.2089V22.2087V22.2085V22.2083V22.2081V22.2079V22.2077V22.2075V22.2073V22.2071V22.2069V22.2067V22.2065V22.2063V22.2061V22.2059V22.2057V22.2055V22.2053V22.2051V22.2049V22.2048V22.2046V22.2044V22.2042V22.204V22.2038V22.2036V22.2034V22.2032V22.203V22.2028V22.2026V22.2024V22.2022V22.202V22.2018V22.2016V22.2014V22.2012V22.201V22.2008V22.2006V22.2004V22.2002V22.2V22.1998V22.1996V22.1994V22.1992V22.199V22.1988V22.1986V22.1984V22.1982V22.198V22.1977V22.1975V22.1973V22.1971V22.1969V22.1967V22.1965V22.1963V22.1961V22.1959V22.1957V22.1955V22.1953V22.1951V22.1949V22.1947V22.1945V22.1943V22.1941V22.1939V22.1937V22.1935V22.1933V22.1931V22.1929V22.1927V22.1925V22.1923V22.1921V22.1919V22.1917V22.1915V22.1913V22.1911V22.1909V22.1906V22.1904V22.1902V22.19V22.1898V22.1896V22.1894V22.1892V22.189V22.1888V22.1886V22.1884V22.1882V22.188V22.1878V22.1876V22.1874V22.1872V22.187V22.1868V22.1866V22.1864V22.1862V22.186V22.1857V22.1855V22.1853V22.1851V22.1849V22.1847V22.1845V22.1843V22.1841V22.1839V22.1837V22.1835V22.1833V22.1831V22.1829V22.1827V22.1825V22.1823V22.1821V22.1819V22.1816V22.1814V22.1812V22.181V22.1808V22.1806V22.1804V22.1802V22.18V22.1798V22.1796V22.1794V22.1792V22.179V22.1788V22.1786V22.1784V22.1782V22.178V22.1778V22.1775V22.1773V22.1771V22.1769V22.1767V22.1765V22.1763V22.1761V22.1759V22.1757V22.1755V22.1753V22.1751V22.1749V22.1747V22.1745V22.1743V22.1741V22.1739V22.1737V22.1735V22.1732V22.173V22.1728V22.1726V22.1724V22.1722V22.172V22.1718V22.1716V22.1714V22.1712V22.171V22.1708V22.1706V22.1704V22.1702V22.17V22.1698V22.1696V22.1694V22.1692V22.169V22.1688V22.1685V22.1683V22.1681V22.1679V22.1677V22.1675V22.1673V22.1671V22.1669V22.1667V22.1665V22.1663V22.1661V22.1659V22.1657V22.1655V22.1653V22.1651V22.1649V22.1647V22.1645V22.1643V22.1641V22.1639V22.1637V22.1635V22.1633V22.1631V22.1629V22.1627V22.1625V22.1623V22.1621V22.1619V22.1617V22.1615V22.1613V22.1611V22.1609V22.1607V22.1604V22.1602V22.16V22.1598V22.1596V22.1594V22.1592V22.159V22.1588V22.1586V22.1584V22.1582V22.158V22.1578V22.1576V22.1574V22.1572V22.157V22.1568V22.1566V22.1564V22.1562V22.156V22.1558V22.1556V22.1555V22.1553V22.1551V22.1549V22.1547V22.1545V22.1543V22.1541V22.1539V22.1537V22.1535V22.1533V22.1531V22.1529V22.1527V22.1525V22.1523V22.1521V22.1519V22.1517V22.1515V22.1513V22.1511V22.1509V22.1507V22.1505V22.1503V22.1501V22.1499V22.1497V22.1495V22.1493V22.1492V22.149V22.1488V22.1486V22.1484V22.1482V22.148V22.1478V22.1476V22.1474V22.1472V22.147V22.1468V22.1466V22.1464V22.1462V22.1461V22.1459V22.1457V22.1455V22.1453V22.1451V22.1449V22.1447V22.1445V22.1443V22.1441V22.1439V22.1438V22.1436V22.1434V22.1432V22.143V22.1428V22.1426V22.1424V22.1422V22.142V22.1419V22.1417V22.1415V22.1413V22.1411V22.1409V22.1407V22.1405V22.1404V22.1402V22.14V22.1398V22.1396V22.1394V22.1392V22.139V22.1389V22.1387V22.1385V22.1383V22.1381V22.1379V22.1377V22.1376V22.1374V22.1372V22.137V22.1368V22.1366V22.1365V22.1363V22.1361V22.1359V22.1357V22.1355V22.1354V22.1352V22.135V22.1348V22.1346V22.1344V22.1343V22.1341V22.1339V22.1337V22.1335V22.1334V22.1332V22.133V22.1328V22.1326V22.1325V22.1323V22.1321V22.1319V22.1318V22.1316V22.1314V22.1312V22.131V22.1309V22.1307V22.1305V22.1303V22.1302V22.13V22.1298V20.8698C19.1301 20.6613 19.2434 20.4612 19.4164 20.3589L19.4164 20.3589L19.4177 20.3582C22.4282 18.5377 24.4371 14.3688 22.5244 10.533C21.5837 8.64126 19.7655 7.2428 17.6624 6.78331C15.4392 6.2938 13.1624 6.81367 11.426 8.21301C9.69065 9.6115 8.70012 11.6844 8.70012 13.9098C8.70012 16.757 10.6617 19.1995 12.5924 20.3681C12.7767 20.4804 12.8801 20.6713 12.8801 20.8798V22.2298V22.3798Z" fill="#292D32" stroke="black" stroke-width="0.3"/>
<path d="M19.6586 25.4142L19.6586 25.4142L19.3311 26.5758C17.1444 25.9481 14.846 25.948 12.6592 26.5755C12.3393 26.663 12.0103 26.4798 11.9134 26.1568C11.8191 25.8424 12.0058 25.5122 12.3319 25.4139C14.7247 24.7319 17.2659 24.732 19.6586 25.4142Z" fill="#292D32" stroke="black" stroke-width="0.3"/>
</svg>
