<svg width="24" height="24" viewBox="0 0 24 24" fill="none" xmlns="http://www.w3.org/2000/svg">
<path d="M12 1C9.97101 1.00102 8.0019 1.68762 6.41216 2.94839C4.82242 4.20915 3.70534 5.9701 3.24218 7.94552C2.77901 9.92093 2.99693 11.9949 3.86058 13.8309C4.72423 15.6669 6.18293 17.1572 8 18.06V19C8 19.2652 8.10536 19.5196 8.29289 19.7071C8.48043 19.8946 8.73478 20 9 20H15C15.2652 20 15.5196 19.8946 15.7071 19.7071C15.8946 19.5196 16 19.2652 16 19V18.06C17.8171 17.1572 19.2758 15.6669 20.1394 13.8309C21.0031 11.9949 21.221 9.92093 20.7578 7.94552C20.2947 5.9701 19.1776 4.20915 17.5878 2.94839C15.9981 1.68762 14.029 1.00102 12 1ZM14.624 16.486C14.4395 16.5609 14.2816 16.6891 14.1704 16.8542C14.0593 17.0194 13.9999 17.2139 14 17.413V18H10V17.413C9.99999 17.2138 9.9405 17.0192 9.82915 16.854C9.71779 16.6888 9.55965 16.5607 9.375 16.486C7.86898 15.8769 6.62169 14.763 5.84691 13.3351C5.07213 11.9073 4.81809 10.2544 5.12834 8.65977C5.43859 7.06515 6.29381 5.62808 7.54742 4.59487C8.80103 3.56165 10.375 2.99662 11.9995 2.99662C13.624 2.99662 15.198 3.56165 16.4516 4.59487C17.7052 5.62808 18.5604 7.06515 18.8707 8.65977C19.1809 10.2544 18.9269 11.9073 18.1521 13.3351C17.3773 14.763 16.13 15.8769 14.624 16.486ZM9 23C8.73478 23 8.48043 22.8946 8.29289 22.7071C8.10536 22.5196 8 22.2652 8 22C8 21.7348 8.10536 21.4804 8.29289 21.2929C8.48043 21.1054 8.73478 21 9 21H15C15.2652 21 15.5196 21.1054 15.7071 21.2929C15.8946 21.4804 16 21.7348 16 22C16 22.2652 15.8946 22.5196 15.7071 22.7071C15.5196 22.8946 15.2652 23 15 23H9ZM14.4 9.553C14.4822 9.71958 14.5164 9.90578 14.4988 10.0907C14.4811 10.2756 14.4123 10.452 14.3 10.6L11.3 14.6C11.1409 14.8122 10.904 14.9524 10.6414 14.9899C10.3789 15.0275 10.1122 14.9591 9.9 14.8C9.68783 14.6409 9.54756 14.404 9.51005 14.1414C9.47254 13.8789 9.54087 13.6122 9.7 13.4L11.5 11H10.5C10.319 11 10.1413 10.9509 9.98599 10.8579C9.83068 10.7648 9.70353 10.6314 9.61812 10.4718C9.53271 10.3121 9.49224 10.1323 9.50103 9.95148C9.50981 9.77065 9.56752 9.5956 9.668 9.445L11.668 6.445C11.8152 6.22434 12.044 6.07119 12.3041 6.01924C12.5642 5.9673 12.8343 6.0208 13.055 6.168C13.2757 6.3152 13.4288 6.54402 13.4808 6.80413C13.5327 7.06424 13.4792 7.33434 13.332 7.555L12.369 9H13.5C13.6867 8.99898 13.8699 9.05024 14.029 9.14797C14.188 9.2457 14.3166 9.386 14.4 9.553Z" fill="black"/>
</svg>
