<svg width="32" height="32" viewBox="0 0 32 32" fill="none" xmlns="http://www.w3.org/2000/svg">
<path d="M19.24 26.27H19.11C14.67 26.27 12.53 24.52 12.16 20.6C12.12 20.19 12.42 19.82 12.84 19.78C13.24 19.74 13.62 20.05 13.66 20.46C13.95 23.6 15.43 24.77 19.12 24.77H19.25C23.32 24.77 24.76 23.33 24.76 19.26V12.74C24.76 8.66998 23.32 7.22998 19.25 7.22998H19.12C15.41 7.22998 13.93 8.41998 13.66 11.62C13.61 12.03 13.26 12.34 12.84 12.3C12.42 12.27 12.12 11.9 12.15 11.49C12.49 7.50998 14.64 5.72998 19.11 5.72998H19.24C24.15 5.72998 26.25 7.82998 26.25 12.74V19.26C26.25 24.17 24.15 26.27 19.24 26.27Z" fill="#292D32"/>
<path d="M19.0001 16.75H7.62012C7.21012 16.75 6.87012 16.41 6.87012 16C6.87012 15.59 7.21012 15.25 7.62012 15.25H19.0001C19.4101 15.25 19.7501 15.59 19.7501 16C19.7501 16.41 19.4101 16.75 19.0001 16.75Z" fill="#292D32"/>
<path d="M9.84994 20.0998C9.65994 20.0998 9.46994 20.0298 9.31994 19.8798L5.96994 16.5298C5.67994 16.2398 5.67994 15.7598 5.96994 15.4698L9.31994 12.1198C9.60994 11.8298 10.0899 11.8298 10.3799 12.1198C10.6699 12.4098 10.6699 12.8898 10.3799 13.1798L7.55994 15.9998L10.3799 18.8198C10.6699 19.1098 10.6699 19.5898 10.3799 19.8798C10.2399 20.0298 10.0399 20.0998 9.84994 20.0998Z" fill="#292D32"/>
</svg>
