<svg width="32" height="32" viewBox="0 0 32 32" fill="none" xmlns="http://www.w3.org/2000/svg">
<path d="M25 11.75H7C6.59 11.75 6.25 11.41 6.25 11C6.25 10.59 6.59 10.25 7 10.25H25C25.41 10.25 25.75 10.59 25.75 11C25.75 11.41 25.41 11.75 25 11.75Z" fill="#292D32"/>
<path d="M25 16.75H7C6.59 16.75 6.25 16.41 6.25 16C6.25 15.59 6.59 15.25 7 15.25H25C25.41 15.25 25.75 15.59 25.75 16C25.75 16.41 25.41 16.75 25 16.75Z" fill="#292D32"/>
<path d="M25 21.75H7C6.59 21.75 6.25 21.41 6.25 21C6.25 20.59 6.59 20.25 7 20.25H25C25.41 20.25 25.75 20.59 25.75 21C25.75 21.41 25.41 21.75 25 21.75Z" fill="#292D32"/>
</svg>
