<svg width="32" height="32" viewBox="0 0 32 32" fill="none" xmlns="http://www.w3.org/2000/svg">
<path d="M21 25.25H11C7.35 25.25 5.25 23.15 5.25 19.5V12.5C5.25 8.85 7.35 6.75 11 6.75H21C24.65 6.75 26.75 8.85 26.75 12.5V19.5C26.75 23.15 24.65 25.25 21 25.25ZM11 8.25C8.14 8.25 6.75 9.64 6.75 12.5V19.5C6.75 22.36 8.14 23.75 11 23.75H21C23.86 23.75 25.25 22.36 25.25 19.5V12.5C25.25 9.64 23.86 8.25 21 8.25H11Z" fill="#292D32"/>
<path d="M15.9998 16.87C15.1598 16.87 14.3098 16.61 13.6598 16.08L10.5298 13.58C10.2098 13.32 10.1498 12.85 10.4098 12.53C10.6698 12.21 11.1398 12.15 11.4598 12.41L14.5898 14.91C15.3498 15.52 16.6398 15.52 17.3998 14.91L20.5298 12.41C20.8498 12.15 21.3298 12.2 21.5798 12.53C21.8398 12.85 21.7898 13.33 21.4598 13.58L18.3298 16.08C17.6898 16.61 16.8398 16.87 15.9998 16.87Z" fill="#292D32"/>
</svg>
