<svg width="32" height="32" viewBox="0 0 32 32" fill="none" xmlns="http://www.w3.org/2000/svg">
<path d="M14.5 16.5C14.5 15.66 15.175 15 16 15C16.825 15 17.5 15.675 17.5 16.5C17.5 17.325 16.825 18 16 18C15.175 18 14.5 17.34 14.5 16.5Z" fill="#292D32"/>
<path d="M14.5 22.5C14.5 21.66 15.175 21 16 21C16.825 21 17.5 21.675 17.5 22.5C17.5 23.325 16.825 24 16 24C15.175 24 14.5 23.34 14.5 22.5Z" fill="#292D32"/>
<path d="M14.5 10.5C14.5 9.66 15.175 9 16 9C16.825 9 17.5 9.675 17.5 10.5C17.5 11.325 16.825 12 16 12C15.175 12 14.5 11.34 14.5 10.5Z" fill="black"/>
</svg>
