<svg width="32" height="32" viewBox="0 0 32 32" fill="none" xmlns="http://www.w3.org/2000/svg">
<path d="M16.4599 26.7501C16.2899 26.7501 16.1199 26.7501 15.9499 26.7401C10.3499 26.4901 5.66995 21.9801 5.27995 16.4801C4.93995 11.7601 7.66995 7.35011 12.0699 5.50011C13.3199 4.98011 13.9799 5.38011 14.2599 5.67011C14.5399 5.95011 14.9299 6.60011 14.4099 7.79011C13.9499 8.85011 13.7199 9.98011 13.7299 11.1401C13.7499 15.5701 17.4299 19.3301 21.9199 19.5101C22.5699 19.5401 23.2099 19.4901 23.8299 19.3801C25.1499 19.1401 25.6999 19.6701 25.9099 20.0101C26.1199 20.3501 26.3599 21.0801 25.5599 22.1601C23.4399 25.0601 20.0699 26.7501 16.4599 26.7501ZM6.76995 16.3701C7.10995 21.1301 11.1699 25.0301 16.0099 25.2401C19.2999 25.4001 22.4199 23.9001 24.3399 21.2801C24.4899 21.0701 24.5599 20.9201 24.5899 20.8401C24.4999 20.8301 24.3399 20.8201 24.0899 20.8701C23.3599 21.0001 22.5999 21.0501 21.8499 21.0201C16.5699 20.8101 12.2499 16.3801 12.2199 11.1601C12.2199 9.78011 12.4899 8.45011 13.0399 7.20011C13.1399 6.98011 13.1599 6.83011 13.1699 6.75011C13.0799 6.75011 12.9199 6.77011 12.6599 6.88011C8.84995 8.48011 6.48995 12.3001 6.76995 16.3701Z" fill="#292D32"/>
</svg>
