<svg width="32" height="32" viewBox="0 0 32 32" fill="none" xmlns="http://www.w3.org/2000/svg">
<path d="M21.9998 11.9098C21.9698 11.9098 21.9498 11.9098 21.9198 11.9098H21.8698C19.9798 11.8498 18.5698 10.3898 18.5698 8.58977C18.5698 6.74977 20.0698 5.25977 21.8998 5.25977C23.7298 5.25977 25.2298 6.75977 25.2298 8.58977C25.2198 10.3998 23.8098 11.8598 22.0098 11.9198C22.0098 11.9098 22.0098 11.9098 21.9998 11.9098ZM21.8998 6.74977C20.8898 6.74977 20.0698 7.56977 20.0698 8.57977C20.0698 9.56977 20.8398 10.3698 21.8298 10.4098C21.8398 10.3998 21.9198 10.3998 22.0098 10.4098C22.9798 10.3598 23.7298 9.55977 23.7398 8.57977C23.7398 7.56977 22.9198 6.74977 21.8998 6.74977Z" fill="#292D32"/>
<path d="M22.01 19.2801C21.62 19.2801 21.23 19.2501 20.84 19.1801C20.43 19.1101 20.16 18.7201 20.23 18.3101C20.3 17.9001 20.69 17.6301 21.1 17.7001C22.33 17.9101 23.63 17.6802 24.5 17.1002C24.97 16.7902 25.22 16.4001 25.22 16.0101C25.22 15.6201 24.96 15.2401 24.5 14.9301C23.63 14.3501 22.31 14.1201 21.07 14.3401C20.66 14.4201 20.27 14.1401 20.2 13.7301C20.13 13.3201 20.4 12.9302 20.81 12.8602C22.44 12.5702 24.13 12.8801 25.33 13.6801C26.21 14.2701 26.72 15.1101 26.72 16.0101C26.72 16.9001 26.22 17.7502 25.33 18.3502C24.42 18.9502 23.24 19.2801 22.01 19.2801Z" fill="#292D32"/>
<path d="M9.96998 11.91C9.95998 11.91 9.94998 11.91 9.94998 11.91C8.14998 11.85 6.73998 10.39 6.72998 8.59C6.72998 6.75 8.22998 5.25 10.06 5.25C11.89 5.25 13.39 6.75 13.39 8.58C13.39 10.39 11.98 11.85 10.18 11.91L9.96998 11.16L10.04 11.91C10.02 11.91 9.98998 11.91 9.96998 11.91ZM10.07 10.41C10.13 10.41 10.18 10.41 10.24 10.42C11.13 10.38 11.91 9.58 11.91 8.59C11.91 7.58 11.09 6.75999 10.08 6.75999C9.06998 6.75999 8.24998 7.58 8.24998 8.59C8.24998 9.57 9.00998 10.36 9.97998 10.42C9.98998 10.41 10.03 10.41 10.07 10.41Z" fill="#292D32"/>
<path d="M9.96 19.2801C8.73 19.2801 7.55 18.9502 6.64 18.3502C5.76 17.7602 5.25 16.9101 5.25 16.0101C5.25 15.1201 5.76 14.2701 6.64 13.6801C7.84 12.8801 9.53 12.5702 11.16 12.8602C11.57 12.9302 11.84 13.3201 11.77 13.7301C11.7 14.1401 11.31 14.4201 10.9 14.3401C9.66 14.1201 8.35 14.3501 7.47 14.9301C7 15.2401 6.75 15.6201 6.75 16.0101C6.75 16.4001 7.01 16.7902 7.47 17.1002C8.34 17.6802 9.64 17.9101 10.87 17.7001C11.28 17.6301 11.67 17.9101 11.74 18.3101C11.81 18.7201 11.54 19.1101 11.13 19.1801C10.74 19.2501 10.35 19.2801 9.96 19.2801Z" fill="#292D32"/>
<path d="M15.9998 19.38C15.9698 19.38 15.9498 19.38 15.9198 19.38H15.8698C13.9798 19.32 12.5698 17.86 12.5698 16.06C12.5698 14.22 14.0698 12.73 15.8998 12.73C17.7298 12.73 19.2298 14.23 19.2298 16.06C19.2198 17.87 17.8098 19.33 16.0098 19.39C16.0098 19.38 16.0098 19.38 15.9998 19.38ZM15.8998 14.22C14.8898 14.22 14.0698 15.04 14.0698 16.05C14.0698 17.04 14.8398 17.84 15.8298 17.88C15.8398 17.87 15.9198 17.87 16.0098 17.88C16.9798 17.83 17.7298 17.03 17.7398 16.05C17.7398 15.05 16.9198 14.22 15.8998 14.22Z" fill="#292D32"/>
<path d="M15.9998 26.7597C14.7998 26.7597 13.5998 26.4497 12.6698 25.8197C11.7898 25.2297 11.2798 24.3897 11.2798 23.4897C11.2798 22.5997 11.7798 21.7397 12.6698 21.1497C14.5398 19.9097 17.4698 19.9097 19.3298 21.1497C20.2098 21.7397 20.7198 22.5797 20.7198 23.4797C20.7198 24.3697 20.2198 25.2297 19.3298 25.8197C18.3998 26.4397 17.1998 26.7597 15.9998 26.7597ZM13.4998 22.4097C13.0298 22.7197 12.7798 23.1097 12.7798 23.4997C12.7798 23.8897 13.0398 24.2697 13.4998 24.5797C14.8498 25.4897 17.1398 25.4897 18.4898 24.5797C18.9598 24.2697 19.2098 23.8797 19.2098 23.4897C19.2098 23.0997 18.9498 22.7197 18.4898 22.4097C17.1498 21.4997 14.8598 21.5097 13.4998 22.4097Z" fill="#292D32"/>
</svg>
