<svg width="24" height="24" viewBox="0 0 24 24" fill="none" xmlns="http://www.w3.org/2000/svg">
<path d="M14.25 8H9.75C9.28603 8.00053 8.84122 8.18507 8.51315 8.51315C8.18507 8.84122 8.00053 9.28603 8 9.75V14.25C8.00053 14.714 8.18507 15.1588 8.51315 15.4869C8.84122 15.8149 9.28603 15.9995 9.75 16H14.25C14.714 15.9995 15.1588 15.8149 15.4869 15.4869C15.8149 15.1588 15.9995 14.714 16 14.25V9.75C15.9995 9.28603 15.8149 8.84122 15.4869 8.51315C15.1588 8.18507 14.714 8.00053 14.25 8ZM14 14H10V10H14V14ZM22 9C22.2652 9 22.5196 8.89464 22.7071 8.70711C22.8946 8.51957 23 8.26522 23 8C23 7.73478 22.8946 7.48043 22.7071 7.29289C22.5196 7.10536 22.2652 7 22 7H20V6.75C19.9995 6.02082 19.7096 5.32165 19.194 4.80604C18.6783 4.29043 17.9792 4.00053 17.25 4H17V2C17 1.73478 16.8946 1.48043 16.7071 1.29289C16.5196 1.10536 16.2652 1 16 1C15.7348 1 15.4804 1.10536 15.2929 1.29289C15.1054 1.48043 15 1.73478 15 2V4H13V2C13 1.73478 12.8946 1.48043 12.7071 1.29289C12.5196 1.10536 12.2652 1 12 1C11.7348 1 11.4804 1.10536 11.2929 1.29289C11.1054 1.48043 11 1.73478 11 2V4H9V2C9 1.73478 8.89464 1.48043 8.70711 1.29289C8.51957 1.10536 8.26522 1 8 1C7.73478 1 7.48043 1.10536 7.29289 1.29289C7.10536 1.48043 7 1.73478 7 2V4H6.75C6.02082 4.00053 5.32165 4.29043 4.80604 4.80604C4.29043 5.32165 4.00053 6.02082 4 6.75V7H2C1.73478 7 1.48043 7.10536 1.29289 7.29289C1.10536 7.48043 1 7.73478 1 8C1 8.26522 1.10536 8.51957 1.29289 8.70711C1.48043 8.89464 1.73478 9 2 9H4V11H2C1.73478 11 1.48043 11.1054 1.29289 11.2929C1.10536 11.4804 1 11.7348 1 12C1 12.2652 1.10536 12.5196 1.29289 12.7071C1.48043 12.8946 1.73478 13 2 13H4V15H2C1.73478 15 1.48043 15.1054 1.29289 15.2929C1.10536 15.4804 1 15.7348 1 16C1 16.2652 1.10536 16.5196 1.29289 16.7071C1.48043 16.8946 1.73478 17 2 17H4V17.25C4.00053 17.9792 4.29043 18.6783 4.80604 19.194C5.32165 19.7096 6.02082 19.9995 6.75 20H7V22C7 22.2652 7.10536 22.5196 7.29289 22.7071C7.48043 22.8946 7.73478 23 8 23C8.26522 23 8.51957 22.8946 8.70711 22.7071C8.89464 22.5196 9 22.2652 9 22V20H11V22C11 22.2652 11.1054 22.5196 11.2929 22.7071C11.4804 22.8946 11.7348 23 12 23C12.2652 23 12.5196 22.8946 12.7071 22.7071C12.8946 22.5196 13 22.2652 13 22V20H15V22C15 22.2652 15.1054 22.5196 15.2929 22.7071C15.4804 22.8946 15.7348 23 16 23C16.2652 23 16.5196 22.8946 16.7071 22.7071C16.8946 22.5196 17 22.2652 17 22V20H17.25C17.9792 19.9995 18.6783 19.7096 19.194 19.194C19.7096 18.6783 19.9995 17.9792 20 17.25V17H22C22.2652 17 22.5196 16.8946 22.7071 16.7071C22.8946 16.5196 23 16.2652 23 16C23 15.7348 22.8946 15.4804 22.7071 15.2929C22.5196 15.1054 22.2652 15 22 15H20V13H22C22.2652 13 22.5196 12.8946 22.7071 12.7071C22.8946 12.5196 23 12.2652 23 12C23 11.7348 22.8946 11.4804 22.7071 11.2929C22.5196 11.1054 22.2652 11 22 11H20V9H22ZM18 17.25C17.9997 17.4488 17.9206 17.6394 17.78 17.78C17.6394 17.9206 17.4488 17.9997 17.25 18H6.75C6.55117 17.9997 6.36056 17.9206 6.21996 17.78C6.07937 17.6394 6.00026 17.4488 6 17.25V6.75C6.00026 6.55117 6.07937 6.36056 6.21996 6.21996C6.36056 6.07937 6.55117 6.00026 6.75 6H17.25C17.4488 6.00026 17.6394 6.07937 17.78 6.21996C17.9206 6.36056 17.9997 6.55117 18 6.75V17.25Z" fill="black"/>
</svg>
