<svg width="32" height="32" viewBox="0 0 32 32" fill="none" xmlns="http://www.w3.org/2000/svg">
<path d="M16 16.75C12.83 16.75 10.25 14.17 10.25 11C10.25 7.83 12.83 5.25 16 5.25C19.17 5.25 21.75 7.83 21.75 11C21.75 14.17 19.17 16.75 16 16.75ZM16 6.75C13.66 6.75 11.75 8.66 11.75 11C11.75 13.34 13.66 15.25 16 15.25C18.34 15.25 20.25 13.34 20.25 11C20.25 8.66 18.34 6.75 16 6.75Z" fill="#292D32"/>
<path d="M24.5901 26.75C24.1801 26.75 23.8401 26.41 23.8401 26C23.8401 22.55 20.3202 19.75 16.0002 19.75C11.6802 19.75 8.16016 22.55 8.16016 26C8.16016 26.41 7.82016 26.75 7.41016 26.75C7.00016 26.75 6.66016 26.41 6.66016 26C6.66016 21.73 10.8502 18.25 16.0002 18.25C21.1502 18.25 25.3401 21.73 25.3401 26C25.3401 26.41 25.0001 26.75 24.5901 26.75Z" fill="#292D32"/>
</svg>
