<svg width="24" height="24" viewBox="0 0 24 24" fill="none" xmlns="http://www.w3.org/2000/svg">
<path d="M14.5 0.99987H10.5C10.2348 0.99987 9.98043 1.10523 9.79289 1.29276C9.60536 1.4803 9.5 1.73465 9.5 1.99987V21.9999C9.5 22.2651 9.60536 22.5194 9.79289 22.707C9.98043 22.8945 10.2348 22.9999 10.5 22.9999H14.5C14.7652 22.9999 15.0196 22.8945 15.2071 22.707C15.3946 22.5194 15.5 22.2651 15.5 21.9999V1.99987C15.5 1.73465 15.3946 1.4803 15.2071 1.29276C15.0196 1.10523 14.7652 0.99987 14.5 0.99987ZM21.793 22.9999C22.0582 22.9999 22.3125 22.8945 22.5001 22.707C22.6876 22.5194 22.793 22.2651 22.793 21.9999V6.99984C22.793 6.73462 22.6876 6.48027 22.5001 6.29273C22.3125 6.1052 22.0582 5.99984 21.793 5.99984H17.793C17.5277 5.99984 17.2734 6.1052 17.0858 6.29273C16.8983 6.48027 16.793 6.73462 16.793 6.99984V21.9999C16.793 22.2651 16.8983 22.5194 17.0858 22.707C17.2734 22.8945 17.5277 22.9999 17.793 22.9999H21.793ZM3 22.9999H7C7.26522 22.9999 7.51957 22.8945 7.70711 22.707C7.89464 22.5194 8 22.2651 8 21.9999V11.9998C8 11.7346 7.89464 11.4803 7.70711 11.2927C7.51957 11.1052 7.26522 10.9998 7 10.9998H3C2.73478 10.9998 2.48043 11.1052 2.29289 11.2927C2.10536 11.4803 2 11.7346 2 11.9998V21.9999C2 22.2651 2.10536 22.5194 2.29289 22.707C2.48043 22.8945 2.73478 22.9999 3 22.9999Z" fill="black"/>
</svg>
