<svg width="24" height="24" viewBox="0 0 24 24" fill="none" xmlns="http://www.w3.org/2000/svg">
<path d="M12.0001 14.38C13.3146 14.38 14.3801 13.3144 14.3801 12C14.3801 10.6856 13.3146 9.62 12.0001 9.62C10.6857 9.62 9.62012 10.6856 9.62012 12C9.62012 13.3144 10.6857 14.38 12.0001 14.38Z" fill="#292D32"/>
<path d="M20 18.75C19.84 18.75 19.69 18.7 19.55 18.6C19.22 18.35 19.15 17.88 19.4 17.55C20.61 15.94 21.25 14.02 21.25 12C21.25 9.98 20.61 8.06 19.4 6.45C19.15 6.12 19.22 5.65 19.55 5.4C19.88 5.15 20.35 5.22 20.6 5.55C22.01 7.42 22.75 9.65 22.75 12C22.75 14.35 22.01 16.58 20.6 18.45C20.45 18.65 20.23 18.75 20 18.75Z" fill="#292D32"/>
<path d="M4 18.75C3.77 18.75 3.55 18.65 3.4 18.45C1.99 16.58 1.25 14.35 1.25 12C1.25 9.65 1.99 7.42 3.4 5.55C3.65 5.22 4.12 5.15 4.45 5.4C4.78 5.65 4.85 6.12 4.6 6.45C3.39 8.06 2.75 9.98 2.75 12C2.75 14.02 3.39 15.94 4.6 17.55C4.85 17.88 4.78 18.35 4.45 18.6C4.32 18.7 4.16 18.75 4 18.75Z" fill="#292D32"/>
<path d="M16.8001 16.35C16.6401 16.35 16.4901 16.3 16.3501 16.2C16.0201 15.95 15.9501 15.48 16.2001 15.15C16.8901 14.24 17.2501 13.15 17.2501 12C17.2501 10.85 16.8901 9.76001 16.2001 8.85001C15.9501 8.52001 16.0201 8.05001 16.3501 7.80001C16.6801 7.55001 17.1501 7.62001 17.4001 7.95001C18.2801 9.13001 18.7501 10.53 18.7501 12C18.7501 13.47 18.2801 14.88 17.4001 16.05C17.2501 16.25 17.0301 16.35 16.8001 16.35Z" fill="#292D32"/>
<path d="M7.2 16.35C6.97 16.35 6.75 16.25 6.6 16.05C5.72 14.88 5.25 13.47 5.25 12C5.25 10.53 5.72 9.12001 6.6 7.95001C6.85 7.62001 7.32 7.55001 7.65 7.80001C7.98 8.05001 8.05 8.52001 7.8 8.85001C7.11 9.76001 6.75 10.85 6.75 12C6.75 13.15 7.11 14.24 7.8 15.15C8.05 15.48 7.98 15.95 7.65 16.2C7.52 16.3 7.36 16.35 7.2 16.35Z" fill="#292D32"/>
</svg>
