<svg width="24" height="24" viewBox="0 0 24 24" fill="none" xmlns="http://www.w3.org/2000/svg">
<path d="M2 20C2 20.2652 2.12399 21.124 2.5 21.5C3 22 3.73478 22 4 22H21C21.2652 22 21.5196 21.8946 21.7071 21.7071C21.8946 21.5196 22 21.2652 22 21V8C21.9999 7.73481 21.8946 7.48049 21.707 7.293L16.707 2.293C16.5195 2.10545 16.2652 2.00006 16 2H3C2.73478 2 2.48043 2.10536 2.29289 2.29289C2.10536 2.48043 2 2.73478 2 3V20ZM4 4H15.586L20 8.414V20H17H16.5H16C16 20 14.7652 20 14.5 20H8.5H8H7H4V4Z" fill="black"/>
<path d="M9.20086 11.751C9.85866 11.3115 10.632 11.0769 11.4231 11.0769C12.484 11.0769 13.5014 11.4983 14.2516 12.2484C15.0017 12.9986 15.4231 14.016 15.4231 15.0769C15.4231 15.868 15.1885 16.6413 14.749 17.2991C14.3095 17.9569 13.6848 18.4696 12.9539 18.7724C12.223 19.0751 11.4187 19.1543 10.6428 19C9.86686 18.8457 9.15412 18.4647 8.59471 17.9053C8.0353 17.3459 7.65434 16.6331 7.5 15.8572C7.34566 15.0813 7.42487 14.277 7.72762 13.5461C8.03037 12.8152 8.54306 12.1905 9.20086 11.751Z" fill="black"/>
<path d="M5.5 5H15.586V9H5.5V5Z" fill="black"/>
</svg>
