<svg width="32" height="32" viewBox="0 0 32 32" fill="none" xmlns="http://www.w3.org/2000/svg">
<path d="M21.8701 25.8698C21.5601 25.8698 21.2501 25.7898 20.9701 25.6198L16.9601 23.2397C16.5401 23.2297 16.1201 23.1998 15.7201 23.1398C15.4501 23.0998 15.2201 22.9197 15.1201 22.6597C15.0201 22.3997 15.0701 22.1197 15.2501 21.9097C15.9101 21.1397 16.2501 20.2197 16.2501 19.2397C16.2501 16.8197 14.1201 14.8497 11.5001 14.8497C10.5201 14.8497 9.58007 15.1198 8.79007 15.6398C8.57007 15.7798 8.30007 15.7998 8.06007 15.6898C7.83007 15.5798 7.66008 15.3597 7.63008 15.0997C7.60008 14.8197 7.58008 14.5398 7.58008 14.2498C7.58008 9.28976 11.8801 5.25977 17.1601 5.25977C22.4401 5.25977 26.7401 9.28976 26.7401 14.2498C26.7401 16.9698 25.4801 19.4697 23.2601 21.1797L23.6001 23.8998C23.6801 24.5798 23.3801 25.2198 22.8101 25.5898C22.5301 25.7698 22.2001 25.8698 21.8701 25.8698ZM17.1501 21.7297C17.2901 21.7197 17.4301 21.7598 17.5501 21.8398L21.7401 24.3298C21.8501 24.3998 21.9401 24.3698 22.0001 24.3298C22.0501 24.2998 22.1301 24.2198 22.1101 24.0798L21.7201 20.9197C21.6901 20.6397 21.8101 20.3698 22.0301 20.2098C24.0701 18.7798 25.2401 16.5997 25.2401 14.2297C25.2401 10.0997 21.6201 6.73975 17.1601 6.73975C12.8701 6.73975 9.35007 9.85979 9.09007 13.7798C9.84007 13.4898 10.6501 13.3298 11.4901 13.3298C14.9401 13.3298 17.7401 15.9697 17.7401 19.2197C17.7501 20.0997 17.5401 20.9497 17.1501 21.7297Z" fill="#292D32"/>
<path d="M8.57977 26.7498C8.31977 26.7498 8.06977 26.6798 7.83977 26.5298C7.38977 26.2398 7.14978 25.7398 7.20978 25.2098L7.40977 23.6698C6.05977 22.5698 5.25977 20.9398 5.25977 19.2298C5.25977 17.2798 6.27978 15.4598 7.98978 14.3698C9.01978 13.6998 10.2398 13.3398 11.5098 13.3398C14.9598 13.3398 17.7598 15.9798 17.7598 19.2298C17.7598 20.5498 17.2798 21.8498 16.3998 22.8798C15.2698 24.2498 13.5798 25.0498 11.7198 25.1098L9.27977 26.5598C9.05977 26.6898 8.81977 26.7498 8.57977 26.7498ZM11.4998 14.8398C10.5198 14.8398 9.57976 15.1098 8.78976 15.6298C7.50976 16.4498 6.74977 17.7898 6.74977 19.2298C6.74977 20.6198 7.42978 21.8898 8.62978 22.7098C8.85978 22.8698 8.97977 23.1398 8.94977 23.4198L8.72977 25.1298L11.1198 23.7098C11.2398 23.6398 11.3698 23.5998 11.4998 23.5998C12.9698 23.5998 14.3598 22.9698 15.2398 21.8998C15.8998 21.1198 16.2498 20.1998 16.2498 19.2198C16.2498 16.8098 14.1198 14.8398 11.4998 14.8398Z" fill="#292D32"/>
</svg>
