<svg width="32" height="32" viewBox="0 0 32 32" fill="none" xmlns="http://www.w3.org/2000/svg">
<path d="M20.3799 26.7502H7.23993C6.28993 26.7502 5.40993 26.3103 4.83993 25.5403C4.25993 24.7603 4.08994 23.7802 4.37994 22.8502L8.58993 9.32019C8.96993 8.06019 10.1299 7.2002 11.4499 7.2002H23.7499C24.9599 7.2002 26.0499 7.92028 26.5099 9.04028C26.7599 9.62028 26.8099 10.2803 26.6599 10.9303L23.2899 24.4602C22.9699 25.8102 21.7699 26.7502 20.3799 26.7502ZM11.4599 8.71021C10.8099 8.71021 10.2199 9.14026 10.0299 9.77026L5.81994 23.3003C5.67994 23.7703 5.75993 24.2603 6.05993 24.6603C6.33993 25.0403 6.77994 25.2603 7.24994 25.2603H20.3899C21.0799 25.2603 21.6799 24.7902 21.8399 24.1202L25.2099 10.5802C25.2899 10.2502 25.2699 9.92025 25.1399 9.63025C24.8999 9.06025 24.3699 8.7002 23.7599 8.7002H11.4599V8.71021Z" fill="#292D32"/>
<path d="M24.78 26.75H20C19.59 26.75 19.25 26.41 19.25 26C19.25 25.59 19.59 25.25 20 25.25H24.78C25.19 25.25 25.57 25.08 25.85 24.78C26.13 24.48 26.27 24.08 26.24 23.67L25.25 10.05C25.22 9.64002 25.53 9.27997 25.94 9.24997C26.35 9.22997 26.71 9.52991 26.74 9.93991L27.73 23.56C27.79 24.38 27.5 25.2 26.94 25.8C26.39 26.41 25.6 26.75 24.78 26.75Z" fill="#292D32"/>
<path d="M13.6798 11.1297C13.6198 11.1297 13.5598 11.1197 13.4998 11.1097C13.0998 11.0097 12.8498 10.6097 12.9498 10.1997L13.9898 5.87971C14.0898 5.47971 14.4898 5.22966 14.8998 5.32966C15.2998 5.42966 15.5498 5.8297 15.4498 6.2397L14.4098 10.5598C14.3298 10.8998 14.0198 11.1297 13.6798 11.1297Z" fill="#292D32"/>
<path d="M20.3799 11.1397C20.3299 11.1397 20.2699 11.1397 20.2199 11.1197C19.8199 11.0297 19.56 10.6297 19.64 10.2297L20.5799 5.88974C20.6699 5.47974 21.0699 5.22979 21.4699 5.30979C21.8699 5.38979 22.1299 5.79968 22.0499 6.19968L21.1099 10.5398C21.0399 10.8998 20.7299 11.1397 20.3799 11.1397Z" fill="#292D32"/>
<path d="M19.7002 16.75H11.7002C11.2902 16.75 10.9502 16.41 10.9502 16C10.9502 15.59 11.2902 15.25 11.7002 15.25H19.7002C20.1102 15.25 20.4502 15.59 20.4502 16C20.4502 16.41 20.1102 16.75 19.7002 16.75Z" fill="#292D32"/>
<path d="M18.7002 20.75H10.7002C10.2902 20.75 9.9502 20.41 9.9502 20C9.9502 19.59 10.2902 19.25 10.7002 19.25H18.7002C19.1102 19.25 19.4502 19.59 19.4502 20C19.4502 20.41 19.1102 20.75 18.7002 20.75Z" fill="#292D32"/>
</svg>
