<svg width="24" height="24" viewBox="0 0 24 24" fill="none" xmlns="http://www.w3.org/2000/svg">
<path d="M23 12.3V13.7C23 13.9652 22.8946 14.2196 22.7071 14.4071C22.5196 14.5946 22.2652 14.7 22 14.7C21.7348 14.7 21.4804 14.5946 21.2929 14.4071C21.1054 14.2196 21 13.9652 21 13.7V13.3H19.5V19H20.6C20.8652 19 21.1196 19.1054 21.3071 19.2929C21.4946 19.4804 21.6 19.7348 21.6 20C21.6 20.2652 21.4946 20.5196 21.3071 20.7071C21.1196 20.8946 20.8652 21 20.6 21H16.4C16.1348 21 15.8804 20.8946 15.6929 20.7071C15.5054 20.5196 15.4 20.2652 15.4 20C15.4 19.7348 15.5054 19.4804 15.6929 19.2929C15.8804 19.1054 16.1348 19 16.4 19H17.5V13.3H16V13.7C16 13.9652 15.8946 14.2196 15.7071 14.4071C15.5196 14.5946 15.2652 14.7 15 14.7C14.7348 14.7 14.4804 14.5946 14.2929 14.4071C14.1054 14.2196 14 13.9652 14 13.7V12.3C14 12.0348 14.1054 11.7804 14.2929 11.5929C14.4804 11.4054 14.7348 11.3 15 11.3H22C22.2652 11.3 22.5196 11.4054 22.7071 11.5929C22.8946 11.7804 23 12.0348 23 12.3ZM13.556 19H11V5H17V5.777C17 6.04222 17.1054 6.29657 17.2929 6.48411C17.4804 6.67164 17.7348 6.777 18 6.777C18.2652 6.777 18.5196 6.67164 18.7071 6.48411C18.8946 6.29657 19 6.04222 19 5.777V4C19 3.73478 18.8946 3.48043 18.7071 3.29289C18.5196 3.10536 18.2652 3 18 3H2C1.73478 3 1.48043 3.10536 1.29289 3.29289C1.10536 3.48043 1 3.73478 1 4V5.777C1 6.04222 1.10536 6.29657 1.29289 6.48411C1.48043 6.67164 1.73478 6.777 2 6.777C2.26522 6.777 2.51957 6.67164 2.70711 6.48411C2.89464 6.29657 3 6.04222 3 5.777V5H9V19H6.444C6.17878 19 5.92443 19.1054 5.73689 19.2929C5.54936 19.4804 5.444 19.7348 5.444 20C5.444 20.2652 5.54936 20.5196 5.73689 20.7071C5.92443 20.8946 6.17878 21 6.444 21H13.556C13.8212 21 14.0756 20.8946 14.2631 20.7071C14.4506 20.5196 14.556 20.2652 14.556 20C14.556 19.7348 14.4506 19.4804 14.2631 19.2929C14.0756 19.1054 13.8212 19 13.556 19Z" fill="black"/>
</svg>
