<svg width="32" height="32" viewBox="0 0 32 32" fill="none" xmlns="http://www.w3.org/2000/svg">
<path d="M16.1499 26.75C11.2699 26.75 7.29993 22.78 7.29993 17.9C7.26993 12.17 12.7299 7.4 15.0799 5.61C15.7099 5.13 16.5899 5.13 17.2199 5.61C19.5699 7.43 25.0299 12.26 24.9999 17.91C24.9999 22.78 21.0299 26.75 16.1499 26.75ZM16.1499 6.75C16.0999 6.75 16.0399 6.77 15.9899 6.81C14.2999 8.1 8.77994 12.71 8.80994 17.9C8.80994 21.96 12.1099 25.25 16.1599 25.25C20.2099 25.25 23.5099 21.96 23.5099 17.91C23.5399 12.79 18.0099 8.12 16.3099 6.81C16.2499 6.77 16.1999 6.75 16.1499 6.75Z" fill="#292D32"/>
</svg>
