<svg width="32" height="32" viewBox="0 0 32 32" fill="none" xmlns="http://www.w3.org/2000/svg">
<path d="M18 26.75H14C8.57 26.75 6.25 24.43 6.25 19V13C6.25 7.57 8.57 5.25 14 5.25H18C23.43 5.25 25.75 7.57 25.75 13V19C25.75 24.43 23.43 26.75 18 26.75ZM14 6.75C9.39 6.75 7.75 8.39 7.75 13V19C7.75 23.61 9.39 25.25 14 25.25H18C22.61 25.25 24.25 23.61 24.25 19V13C24.25 8.39 22.61 6.75 18 6.75H14Z" fill="#292D32"/>
<path d="M19.0701 16.5401C18.8901 16.5401 18.7101 16.4701 18.5701 16.3501C17.1101 15.0501 14.8901 15.0501 13.4301 16.3501C13.2701 16.5001 13.0501 16.5601 12.8201 16.5301C12.6001 16.5001 12.4101 16.3701 12.2901 16.1801L10.1101 12.6801C9.92011 12.3701 9.98011 11.9701 10.2501 11.7201C13.5301 8.8101 18.4701 8.8101 21.7501 11.7201C22.0201 11.9601 22.0801 12.3701 21.8901 12.6801L19.7101 16.1801C19.5901 16.3701 19.4001 16.4901 19.1801 16.5301C19.1401 16.5301 19.1001 16.5401 19.0701 16.5401ZM16.0001 13.8701C17.0001 13.8701 17.9901 14.1501 18.8601 14.7001L20.2601 12.4501C17.7301 10.5701 14.2601 10.5701 11.7301 12.4501L13.1301 14.7001C14.0101 14.1401 15.0001 13.8701 16.0001 13.8701Z" fill="#292D32"/>
</svg>
